<?xml version="1.0" encoding="utf-8"?>
<!-- Generator: Adobe Illustrator 26.3.1, SVG Export Plug-In . SVG Version: 6.00 Build 0)  -->
<svg version="1.1" id="Layer_1" xmlns="http://www.w3.org/2000/svg" xmlns:xlink="http://www.w3.org/1999/xlink" x="0px" y="0px"
	 viewBox="0 0 640 640" style="enable-background:new 0 0 640 640;" xml:space="preserve">
<style type="text/css">
	.st0{opacity:0.17;fill:#FFFFFF;}
	.st1{opacity:0.17;}
	.st2{clip-path:url(#SVGID_00000016040489037794011320000015166803790860991634_);}
	.st3{fill:#FFDE17;}
	.st4{fill:#E42557;}
	.st5{fill:#F7941D;}
	.st6{fill:#00B2B0;}
	.st7{fill:#9474B4;}
	.st8{fill:#F3796D;}
	.st9{fill:#39B54A;}
	.st10{fill:#FFC52D;}
	.st11{fill:#282F39;}
</style>
<rect class="st0" width="640" height="640"/>
<g class="st1">
	<defs>
		<rect id="SVGID_1_" class="st1" width="640" height="640"/>
	</defs>
	<clipPath id="SVGID_00000130633200344825738750000004368902574838336940_">
		<use xlink:href="#SVGID_1_"  style="overflow:visible;"/>
	</clipPath>
	<g style="clip-path:url(#SVGID_00000130633200344825738750000004368902574838336940_);">
		<g>
			<path class="st3" d="M233.6,551.1c-3.6-2.6-8.2-2.9-12.4-1.5c-1.9-0.2-3.8-0.1-5.7,0.2c-15.4,2.9-26.5,16.1-28.2,31.3
				c-0.9,7.7,1.2,15.1,4.9,21.8c4.9,9,13.2,13,23.1,13.2c15.6,0.3,28-10.8,33.4-24.6C254.5,576.3,245.6,559.8,233.6,551.1
				L233.6,551.1z"/>
			<path class="st4" d="M56.8,263.2c-0.5-1-1.2-2-2.1-3c-1.7-7-8.1-12.3-15.5-12.3c-1.9,0-3.9,0-5.8,0c-7.4-0.1-13.2,5-15.4,11.8
				c-2.6,7.9-2.6,16.4-0.6,24.5c3.4,13.9,17.4,17.3,29,11.9c8-3.7,12.7-12.2,13.4-20.7C60,270.8,58.6,267,56.8,263.2L56.8,263.2z"/>
			<path class="st5" d="M205.6,61.7c8.2,2,16.3,3.1,24.6,1.1c8.8-2.1,15.6-9.5,18.6-17.6c7.7-20.6-16.4-35.3-33.5-25.6
				c-12,2.5-21.2,13.5-21.5,26.7C193.6,53.2,198.8,60,205.6,61.7L205.6,61.7z"/>
			<path class="st6" d="M531.2,163.2c9.2,0,19.5,1.3,25.1-7.9c4.4-7.3,5.9-14.6,4.4-23c-1.4-7.8-8.8-13.7-15.9-15.8
				c-2.2-0.7-4.5-0.9-6.7-0.8c-2.1-1-4.4-1.6-6.9-1.6c-8.7,0-16,7.3-16,16c0,5.7,0,11.4,0,17.1C515.2,155.9,522.5,163.2,531.2,163.2
				L531.2,163.2z"/>
			<path class="st4" d="M412.3,306.5c-0.7-0.9-1.4-1.7-2.2-2.5c-6.1-6.2-16.5-6.1-22.6,0c-1,1-1.7,2-2.4,3.1
				c-0.7,0.5-1.3,1.1-1.9,1.6c-5.8,5.4-7.8,14.3-7.3,22c0.3,4.4,1.5,8.2,4.7,11.3c3.3,3.3,6.9,4.1,11.3,4.7c5.1,0.7,10.7,0,15.6-1.8
				c4.9-1.8,10.2-5.5,11.2-11.2c1-6,0.8-11.9-1-17.3C417.1,312.5,415.2,309.1,412.3,306.5L412.3,306.5z M387.8,327.3
				C388.1,327.9,388.2,328.3,387.8,327.3L387.8,327.3z"/>
			<path class="st4" d="M365.5,63.4C386,60.5,404.7,56.5,421,43c12-10,30.6-33.6,14.6-48.1c-2.5-2.3-5.1-4-7.8-5.4
				c-3.3-10.2-16.7-17.2-26.4-7.2C391.2-7.1,381.2,3.4,367,8.1c-16.3,5.4-33.4,9.1-50,13.6c-12.7,3.5-14.1,17.6-7.1,26.7
				C323.3,65.7,345.8,66.1,365.5,63.4L365.5,63.4z M413.8,18.4C413.8,18.4,413.8,18.4,413.8,18.4L413.8,18.4z"/>
			<path class="st4" d="M365.5,703.8c20.5-2.9,39.2-6.9,55.5-20.4c12-10,30.6-33.6,14.6-48.1c-2.5-2.3-5.1-4-7.8-5.3
				c-3.3-10.2-16.7-17.2-26.4-7.2c-10.1,10.5-20.2,21.1-34.4,25.8c-16.3,5.4-33.4,9.2-50,13.7c-12.7,3.5-14.1,17.6-7.1,26.7
				C323.3,706.2,345.8,706.6,365.5,703.8L365.5,703.8z M413.8,658.9C413.8,658.9,413.8,658.9,413.8,658.9L413.8,658.9z"/>
			<path class="st4" d="M586.6,428.3c5.2-10.5-3.4-27-18.5-23.4c-27,6.5-53.1,15.6-78.4,27c-24.4,10.9-48.2,23-49.1,52.9
				c-0.4,12.1,4.2,25,8.6,36c4.7,11.9,10.6,25.8,21.3,33.6c10.3,7.6,25.2,7.6,37.5,7.7c13.7,0,27.6-2.5,40.7-6.6
				c26.1-8.1,47.7-22.8,51.6-51.4C603.9,477.7,597.2,452.2,586.6,428.3L586.6,428.3z M566.1,485.3c-0.7-2-1.7-3.8-3.1-5.3
				c1.8-1.7,3.6-3.5,5.2-5.4c0.7,3.3,1.2,7,1.5,10.9C568.5,485.2,567.3,485.1,566.1,485.3z M488.5,528c-3.7-5.1-6.7-10.8-9.1-16.9
				c5.1-1.8,10.2-4.1,15-6.3c-1.5,2.1-2.9,4.2-4.3,6.3c-4.8,7.2-2.7,14.2,2.2,18.6C490.6,529.4,489.2,528.9,488.5,528L488.5,528z"/>
			<path class="st7" d="M383,434.2c-1-0.5-1.9-1-2.8-1.3c-3.5-11-21.2-16.9-29.8-4c-6,9-8.4,19.3-11,29.7c-3,12-8.3,23-14.2,33.8
				c-11,20-30,39.6-30.8,63.6c-0.6,18.8,10.9,39.5,30.8,42.5c24.8,3.7,43.2-18.6,55.2-37.3c13.2-20.5,16.9-44.4,19.7-68.1
				C402.3,472.9,403.3,445.8,383,434.2L383,434.2z M368.5,489.2c-0.5,4.7-1.1,9.5-1.8,14.1C367.1,499.2,367.6,494.3,368.5,489.2z"/>
			<path class="st6" d="M209.8,494c18.5-7.5,10.2-38-8.9-30.7c-15.5,5.9-31,12.5-46.9,17.1c-15.2,4.5-31.4,1.1-47.1,2.3
				C71,485.3,48.3,518,53.8,552.8c2.5,15.7,18.3,29.6,34,30.2c18,0.7,32-10.3,46-20.2c15.7-11.1,31.4-22.2,47.1-33.3
				C194.3,519.9,208.2,511.6,209.8,494L209.8,494z"/>
			<path class="st8" d="M72.1,380.6c5,7.7,11.9,14.4,19.5,19.7c22.7,15.8,46.7-0.2,61.5-18.3c14.7-18,12.1-45.9,4.7-66.7
				c-19.7-55.2-92.5-13-100.1,28.6C54.7,360.3,60.9,373.6,72.1,380.6L72.1,380.6z"/>
			<path class="st6" d="M319.2,378.7c51.9-16.5,4.5-94.9-13.5-120.2c-15.8-22.3-39.5-15.3-54.1,3.9c-14.8,19.6-9.1,47.9-1.6,68.9
				c1.5,4.3,3.1,8.5,5,12.4c-0.1,6.9,1,13.6,4.7,20.3C269.5,381.9,302,384.1,319.2,378.7L319.2,378.7z"/>
			<path class="st8" d="M428.8,139.6c-20.3,0-39.7,5.2-57.3,15.3c-19,10.9-28.3,26.4-20.8,48c6.3,18.1,15.3,38.2,29.5,51.4
				c18,16.7,42,12.2,62.7,4c19.9-7.9,32.5-20,32.3-42.6c-0.1-9.7-1.8-19.6-2.7-29.2c-1-9.9-0.9-21.1-5.8-30.1
				c-6.6-12.2-17.4-15.8-28-13.5C436.2,140.9,432.9,139.6,428.8,139.6L428.8,139.6z M440.2,179.4c0.1,0.9,0.3,1.8,0.4,2.7
				c-0.3-0.7-0.6-1.4-1-2C439.8,179.8,440,179.6,440.2,179.4L440.2,179.4z"/>
			<path class="st9" d="M156.1,208.5c2.9-0.2,6.2,1.3,5.1-0.7c2.3,3.4,3.5,8,5.1,11.6c4,8.9,8.7,17.4,13.8,25.7
				c7.4,12.1,25,9.4,29.2-3.8c4.1-12.6-0.2-25.4,2.9-38.1c3.5-13.8,19.4-19.9,20.3-34.9c0.8-13.1-9-24.8-16.6-34.6
				c-8.8-11.3-19-23.4-34.1-25c-2.5-0.2-4.8-0.2-7.1,0c-2.6-3.2-6.6-5.1-12-4.7c-19.7,1.5-30.2,16.3-39.8,32
				c-9.7,15.9-18.5,35.9-9.7,54.2C121.8,207.6,138.6,209.8,156.1,208.5L156.1,208.5z M184.2,144c-3.9,3-7.9,5.9-11.9,8.9
				c-0.5,0.4-1.1,0.8-1.6,1.3c0.2-0.8,0.5-1.5,0.7-2.2c0.9-3.1,3.2-11,7.4-11.4C180.1,140.3,182,141.7,184.2,144z"/>
			<path class="st10" d="M43.8,187.2c3.6-14.3,4-32.1-3.4-45.2c-6.8-12.1-21.4-13.2-31.9-6.5c-25,1.6-59.4,16.5-54.1,44.6
				c2.5,13.7,15.1,24.5,25.2,33.1c12.9,11.1,26.2,18.2,42.6,10.1C34.5,217.3,40.6,199.4,43.8,187.2L43.8,187.2z"/>
			<path class="st10" d="M683.8,187.2c3.6-14.3,4-32.1-3.4-45.2c-6.8-12.1-21.4-13.2-31.9-6.5c-25,1.6-59.4,16.5-54.1,44.6
				c2.5,13.7,15.1,24.5,25.2,33.1c12.9,11.1,26.2,18.2,42.6,10.1C674.5,217.3,680.7,199.4,683.8,187.2L683.8,187.2z"/>
			<g>
				<path class="st11" d="M252.6,566.2c4.2,7.8,4.9,15.9,0.5,23.7c-5.3,9.2-18.3,8.3-27.1,7.6c1.1-1.1,2.1-2.1,3.2-3.2
					c0,7.2,2.3,14,2.3,21.2c0,1.8-1.5,3.1-3.2,3.2c-10.5,0.8-20.1-1.6-28.9-7.4c-1.2-0.8-1.9-2.2-1.5-3.6c1.8-6.7,4.3-12.8,7.1-19.2
					c0.4,1.5,0.8,2.9,1.1,4.4c-9.4-5.2-17.9-9.2-21.2-20.1c-2.8-9.2,5.5-17.4,12.5-21.6C217.2,539.5,240.6,548.4,252.6,566.2
					c2.3,3.4-3.2,6.6-5.5,3.2c-8.3-12.2-21-18.7-35.9-16.4c-8.1,1.3-16.9,5.8-19.9,13.9c-4.1,10.9,11.4,16.8,18.1,20.5
					c1.7,0.9,1.8,2.8,1.1,4.4c-2.5,5.8-4.8,11.5-6.4,17.6c-0.5-1.2-1-2.4-1.5-3.6c7.9,5.2,16.2,7.3,25.6,6.6
					c-1.1,1.1-2.1,2.1-3.2,3.2c0-7.2-2.3-14-2.3-21.2c0-1.7,1.5-3.3,3.2-3.2c4.7,0.3,9.2,0.7,13.9,0c11.2-1.7,11.3-14,7.2-21.7
					C245.2,565.8,250.7,562.5,252.6,566.2L252.6,566.2z"/>
				<path class="st11" d="M229.8,577.3c-1.6,3.4-3.2,6.9-4.8,10.3c-1.1,2.3-3.2,6.7-6.6,5.4c-6.2-2.3-7.8-12.7-7.8-18.4
					c0-4.1,6.4-4.1,6.4,0c0,2.2,0.2,4.3,0.8,6.5c0.3,1.1,0.7,2.2,1.1,3.2c0.3,0.6,0.6,1.3,1,1.9c1.1,1.2,0.5,1.6-1.7,1
					c1.2-1.6,1.9-4,2.8-5.8c1.1-2.4,2.2-4.8,3.3-7.2C226,570.4,231.5,573.6,229.8,577.3L229.8,577.3L229.8,577.3z"/>
			</g>
			<path class="st11" d="M556.4,134.8c-4.6-11.3-18.9-19.6-30.7-20.5c-0.2,0-0.3,0-0.5,0c-0.2,0-0.3,0-0.5,0
				c-2.1-0.1-3.1,1.5-3.1,3.1c0,0.3,0,0.6,0,1c1.6,10.5-1.5,18-6.5,26.9c-2.6,4.7-0.6,9.8,1.7,14.1c5.8,10.6,18.9,13.5,28.8,7.7
				C556.5,160.7,560.9,146,556.4,134.8L556.4,134.8z M551.2,139c0.8,2,1.1,4.2,1,6.4c-0.3-0.2-0.7-0.4-1.2-0.5
				c-4.5-0.4-8.7-1.5-12.7-3.3v-16.6C544.1,128.2,548.9,133.3,551.2,139z M528.3,121c1.9,0.4,3.9,1,5.8,1.8v16.5
				c-2.4-1.5-4.7-3.3-6.7-5.3C528.3,129.6,528.6,125.4,528.3,121L528.3,121z M532.6,163.5c-7-1.1-14.7-10.1-10.6-17.6
				c1.4-2.5,3-4.7,4-7.4c7,6.2,15.6,9.8,25,10.6c0.2,0,0.3,0,0.5-0.1C549.1,157.4,541,164.8,532.6,163.5z"/>
			<path class="st11" d="M-8.2,582.5c-0.1,0-0.3,0-0.5,0c-0.2,0-0.3,0-0.5,0c-2.1-0.1-3.1,1.5-3.1,3.1c0,0.3-0.1,0.6,0,1
				c1.6,10.5-1.6,18-6.5,26.9c-2.6,4.7-0.6,9.8,1.7,14.1c5.8,10.6,18.9,13.5,28.9,7.7c10.8-6.2,15.1-20.9,10.6-32.1
				C18,591.7,3.6,583.4-8.2,582.5L-8.2,582.5z M17.4,607.2c0.8,2,1.1,4.2,1,6.3c-0.3-0.2-0.7-0.4-1.1-0.5c-4.5-0.4-8.7-1.5-12.7-3.3
				v-16.6C10.2,596.5,15.1,601.5,17.4,607.2L17.4,607.2z M-5.5,589.2c1.9,0.4,3.9,1,5.8,1.8v16.5c-2.4-1.5-4.7-3.3-6.7-5.3
				C-5.5,597.8-5.2,593.6-5.5,589.2L-5.5,589.2z M-1.2,631.7c-6.9-1.1-14.7-10.1-10.6-17.5c1.4-2.5,3-4.7,4-7.4
				c7,6.2,15.6,9.8,25,10.6c0.2,0,0.3,0,0.5-0.1C15.3,625.6,7.2,633-1.2,631.7z"/>
			<path class="st11" d="M629.6,582.5c-0.2,0-0.3,0-0.5,0c-0.2,0-0.3,0-0.5,0c-2.1-0.1-3.1,1.5-3.1,3.1c0,0.3,0,0.6,0,1
				c1.6,10.5-1.5,18-6.5,26.9c-2.6,4.7-0.6,9.8,1.7,14.1c5.8,10.6,18.9,13.5,28.8,7.7c10.8-6.2,15.2-20.9,10.6-32.1
				C655.7,591.7,641.4,583.4,629.6,582.5L629.6,582.5z M655.2,607.2c0.8,2,1.1,4.2,1,6.3c-0.3-0.2-0.7-0.4-1.2-0.5
				c-4.5-0.4-8.8-1.5-12.7-3.3v-16.6C648,596.5,652.9,601.5,655.2,607.2L655.2,607.2z M632.2,589.2c1.9,0.4,3.9,1,5.8,1.8v16.5
				c-2.4-1.5-4.7-3.3-6.7-5.3C632.3,597.8,632.6,593.6,632.2,589.2L632.2,589.2z M636.5,631.7c-7-1.1-14.7-10.1-10.6-17.5
				c1.4-2.5,3-4.7,4-7.4c7,6.2,15.6,9.8,25,10.6c0.2,0,0.3,0,0.5-0.1C653.1,625.6,644.9,633,636.5,631.7z"/>
			<path class="st11" d="M255.1,22.5c-10-6.5-21.4-6.6-32.4-2.3c-11,4.2-18.4,15.7-25.5,24.5c-0.4,0.4-0.7,0.8-0.9,1.4
				c-0.1,0.2-0.1,0.3-0.1,0.5c-3.6,1.5-7.2,3.1-10.8,4.7c-2.5,1.1-0.3,4.8,2.1,3.7c3.5-1.5,6.9-3,10.4-4.5c0.3,0.2,0.6,0.3,0.9,0.3
				c10.6,4.2,23.6,7.5,34.5,3c11.3-4.6,17.6-16.6,22.8-26.9C257.1,25.3,256.6,23.5,255.1,22.5L255.1,22.5z M238.9,23.4
				c2.4,0.1,4.8,0.7,7.3,1.7c-3.8,1.6-7.6,3.3-11.4,4.9C236.2,27.8,237.7,25.7,238.9,23.4z M234,23.6c-1.9,3.2-4.5,6.2-6.4,9.5
				c-6.4,2.8-12.8,5.5-19.2,8.3C215.6,33,224.1,25.1,234,23.6z M206.6,46.7c3.7-1.6,7.4-3.2,11-4.8c0.1,0,0.2,0.1,0.3,0.2
				c5,2,10.4,2.9,15.6,4.3C226.3,51.4,215.6,49.6,206.6,46.7z M237.5,43.2c-4.6-1.5-9.4-2.4-14.1-3.8c2.1-0.9,4.1-1.8,6.2-2.7
				c0.3,0,0.5-0.2,0.8-0.3c5.9-2.5,11.8-5.1,17.6-7.6C245.1,34.1,241.9,39.1,237.5,43.2L237.5,43.2z"/>
			<path class="st11" d="M207.8,415.7c2.8,11.6,11,19.5,21.8,24c10.9,4.5,24.1,1.3,35.4-0.2c0.5,0,1.1-0.1,1.6-0.4
				c0.1-0.1,0.3-0.1,0.4-0.2c3.7,1.4,7.3,2.7,11,4.1c2.6,1,3.5-3.2,1-4.1c-3.5-1.3-7.1-2.6-10.6-3.9c-0.1-0.3-0.2-0.6-0.4-0.8
				c-4.8-10.4-12-21.7-22.9-26c-11.4-4.4-24.2-0.1-35.1,3.7C208.3,412.3,207.4,413.9,207.8,415.7L207.8,415.7z M220.2,426.2
				c-1.6-1.7-3-3.8-4.1-6.2c3.9,1.4,7.8,2.9,11.7,4.3C225.2,424.8,222.6,425.4,220.2,426.2z M223.9,429.5c3.6-1,7.5-1.4,11.1-2.5
				c6.6,2.4,13.1,4.8,19.7,7.3C243.6,435.3,232.1,435.1,223.9,429.5L223.9,429.5z M259.6,431.6c-3.8-1.4-7.5-2.8-11.3-4.2
				c0-0.1,0-0.2-0.1-0.3c-2.3-4.9-5.5-9.3-8.3-13.9C248.6,414.6,255.1,423.4,259.6,431.6L259.6,431.6z M234.9,412.8
				c2.3,4.3,5.2,8.2,7.6,12.4c-2.1-0.8-4.2-1.5-6.3-2.3c-0.2-0.1-0.5-0.2-0.8-0.3c-6-2.2-12-4.4-18-6.6
				C223.1,414.1,228.9,412.8,234.9,412.8L234.9,412.8z"/>
			<g>
				<path class="st11" d="M527.2,17.5c-1-0.2-2,0.1-2.8,1.2c-0.3,0.4-0.6,0.7-0.9,1c-0.5,0.4-0.9,0.8-1.1,1.3
					c-4.7,5.1-10.8,8.4-16.7,12c-5.2,3.2-12.6,6.1-16.5,10.9c-7,8.6,6.4,18.4,13.7,20.1c11,2.7,23.5-1.2,29.2-11.6
					c5.8-10.6,4.6-22.7-0.7-33.2C530.7,17.5,529,16.8,527.2,17.5L527.2,17.5z M528.4,45.8c-3.5,10.9-15.8,15-25.9,11.4
					c-4-1.5-11.2-7.5-5.4-11.3c4.1-2.7,8.3-5.1,12.5-7.6c6.3-3.8,12.6-7.5,17.6-12.8C529.8,31.9,530.6,38.8,528.4,45.8z"/>
				<path class="st11" d="M500.2,46.6c-0.2,0-0.5,0-0.7,0.1c-4.1,0.4-3.5,6.8,0.6,6.4c0.2,0,0.5,0,0.7-0.1
					C505,52.5,504.3,46.2,500.2,46.6z"/>
			</g>
			<g>
				<path class="st11" d="M399.4,311.8c-7.1-3.4-14.6-6.4-20.5-11.6c-0.2-0.4-0.6-0.8-1.1-1.1c-0.3-0.3-0.7-0.6-1-1
					c-0.9-0.9-1.9-1.1-2.9-0.9c-1.7-0.5-3.4,0.4-4,2.2c-8.3,21.6,4.3,48.8,30.5,42.6c8.5-2,20.6-12.4,14.5-21.6
					C411.9,316,403.8,313.9,399.4,311.8L399.4,311.8z M405.9,331.9c-8.8,8.5-22.9,4.8-29.2-4.4c-4.5-6.5-4.1-15-2-22.4
					c4.8,4.2,10.4,6.9,16.2,9.7c3.5,1.7,7,3.4,10.5,5.1C407,322.6,412.9,325.1,405.9,331.9z"/>
				<path class="st11" d="M404.4,323.5h-0.7c-4.1,0-4.1,6.4,0,6.4h0.7C408.5,329.9,408.5,323.5,404.4,323.5z"/>
			</g>
			<g>
				<path class="st11" d="M45.1,256.6c-7.1-3.4-14.6-6.4-20.5-11.6c-0.2-0.4-0.6-0.8-1.1-1.1c-0.3-0.3-0.7-0.6-1-0.9
					c-0.9-0.9-1.9-1.1-2.9-0.9c-1.7-0.5-3.4,0.4-4.1,2.2c-8.3,21.6,4.3,48.8,30.5,42.6c8.5-2,20.6-12.4,14.5-21.6
					C57.6,260.9,49.6,258.8,45.1,256.6L45.1,256.6z M51.6,276.7c-8.8,8.5-22.9,4.8-29.2-4.4c-4.5-6.5-4.1-15-2-22.4
					c4.8,4.2,10.4,6.9,16.2,9.7c3.5,1.7,7,3.4,10.5,5.1C52.8,267.4,58.7,269.9,51.6,276.7z"/>
				<path class="st11" d="M50.1,268.3h-0.7c-4.1,0-4.1,6.4,0,6.4h0.7C54.2,274.7,54.2,268.3,50.1,268.3z"/>
			</g>
			<path class="st11" d="M319.1,170.9c-4.1-4.7-7-9-8.4-15.1c-2.9-12.4-8-20-21.2-19.4c-1.5-2.6-2.3-5.5-2.4-8.8
				c-0.4-4.1-6.8-4.1-6.4,0c0.7,8.1,4.7,14.4,4.1,22.7c-0.6,8.2-0.4,14.6,3.8,21.9c5.4,9.3,22,18.8,32.4,13.8
				c3.6-1.7,3.8-6.2,2.7-9.3C322.8,174.7,320.4,172.4,319.1,170.9L319.1,170.9z M300.5,147.5c-2.7,2.4-6,3.7-9.6,3.8
				c0.2-2.8,0.4-5.6,0.6-8.5C295.9,143.2,298.6,144.9,300.5,147.5L300.5,147.5z M311.5,180.5c-12.8-3-20.6-12.3-20.7-24.8
				c4.3,0,8.5-1.6,11.9-4.3c1,2.6,1.8,5.7,2.5,8.9c0.8,3.4,2.6,6.4,4.5,9.3C309.5,169.4,320.5,182.6,311.5,180.5L311.5,180.5z"/>
			<path class="st11" d="M548.3,214.4c-0.7,7.4-1.8,7.2-3.1,8.8c-12.6-0.4-18.2,7.1-20.6,19.4c-1.2,6.1-4.4,10.5-8.4,15.1
				c-1.3,1.5-3.7,3.8-4.4,5.8c-1,3.1-0.9,7.6,2.7,9.3c11.4,5.4,25.7-5.2,32.3-13.8c4.8-6.3,4.3-14.5,3.8-21.9
				c-0.6-8.3,3.3-14.6,4.1-22.7C555.1,210.3,548.7,210.3,548.3,214.4z M543.4,229.7c0.1,2.5,0.7,5.3,0.8,7.4c0,0.4,0,0.7,0,1
				c-3.6-0.1-6.9-1.4-9.6-3.8C536.5,231.8,539.1,230,543.4,229.7L543.4,229.7z M523.8,267.3c-9,3,1.7-10.8,1.3-10.3
				c1.7-2.1,3.3-4.6,4.2-7.2c1.3-4,2.1-8.1,3.4-11.6c3.3,2.7,7.4,4.2,11.6,4.2C543.8,255.1,537.2,262.7,523.8,267.3L523.8,267.3z"/>
			<path class="st11" d="M52.9,424.7c-0.7,7.4-1.8,7.2-3.1,8.8c-12.6-0.4-18.2,7.1-20.6,19.4c-1.2,6.1-4.4,10.5-8.4,15.1
				c-1.3,1.5-3.7,3.8-4.4,5.8c-1.1,3.1-0.9,7.6,2.7,9.3c11.4,5.4,25.7-5.2,32.3-13.8c4.8-6.3,4.3-14.5,3.8-21.9
				c-0.6-8.3,3.3-14.6,4.1-22.7C59.7,420.6,53.3,420.6,52.9,424.7z M48,439.9c0.1,2.5,0.7,5.3,0.8,7.4c0,0.4,0,0.7,0,1
				c-3.6-0.1-6.9-1.4-9.6-3.8C41.1,442,43.8,440.3,48,439.9L48,439.9z M28.4,477.5c-9,3,1.7-10.8,1.3-10.3c1.7-2.1,3.3-4.6,4.2-7.2
				c1.3-4,2.1-8.1,3.4-11.6c3.3,2.7,7.4,4.2,11.6,4.2C48.4,465.4,41.9,473,28.4,477.5z"/>
			<path class="st11" d="M619.3,323.5c4.9-5.1,7.5-12,7-19.1c-0.1-1.6-0.9-2.5-2.3-3.1c-6.2-2.6-12.9-1.1-17.6,3.3
				c-2.5-7.1-7.7-13.2-16.1-9.5c-1,0.4-1.7,1.8-1.6,2.8c0.5,7.4,1.8,14.7,4.8,21.5c2,4.7,5.1,14.6,11.4,14.5
				C609.5,334,616.2,326.7,619.3,323.5L619.3,323.5z M604.2,327.5c0.2-0.1-5.5-11.7-5.8-12.6c-1.8-4.7-2.7-9.6-3.2-14.6
				c4,0,5.4,7.1,6.1,10.1c0.4,2,2.1,2.6,3.7,2.2c1.3,0.5,3,0.3,4-1.2c2.6-4,6.7-5.5,11-4.5C619.4,316.3,611.8,322.4,604.2,327.5z"/>
			<path class="st11" d="M124.1,37.2c-6.2-2.6-12.9-1.1-17.6,3.3c-2.5-7.1-7.7-13.2-16.1-9.5c-0.9,0.4-1.7,1.8-1.6,2.8
				c0.5,7.4,1.8,14.7,4.8,21.5c2,4.7,5.1,14.6,11.4,14.5c4.7,0,11.5-7.3,14.5-10.5c4.9-5.1,7.5-12,7-19.1
				C126.3,38.7,125.5,37.8,124.1,37.2z M104.4,63.2c0.2-0.1-5.5-11.7-5.8-12.6c-1.8-4.7-2.7-9.6-3.2-14.6c4,0,5.4,7.1,6.1,10.1
				c0.4,2,2.1,2.6,3.7,2.2c1.3,0.5,3,0.3,4-1.2c2.6-4,6.7-5.5,10.9-4.5C119.6,52.1,112,58.2,104.4,63.2L104.4,63.2z"/>
			<g>
				<path class="st11" d="M168.4,342.2c-3.5-23.1-19.3-44.6-40.9-49.7c-0.9-0.7-2-0.9-3-0.6c-5.6-0.9-11.5-0.7-17.7,0.8
					c-0.5-2.6-1-5.1-1.5-7.7c-0.5-2.7-0.7-6-1.9-8.5c-2.5-5-9.5-1.7-13.5-0.8c-1.3,0.3-2.5,1.7-2.3,3.1c0.5,5.1,1.1,10.2,1.6,15.3
					c-29.7,9-50.1,42.9-44.1,73.6c2.9,14.9,10.5,26.9,22.6,35.9c14.8,11,34.1,9.2,50.9,4.7c14.2-3.8,29.9-10.2,39-22.3
					C167,373.7,170.8,357.7,168.4,342.2L168.4,342.2z M102.2,298.3c0.6,1.1,1.8,1.9,3.5,1.4c6.2-1.9,12.1-2.3,17.6-1.5
					c0.2,0.6,0.4,1.2,0.6,1.8c-2.9,0.9-5.7,1.8-8.6,2.6c-2.6,0.8-3.2,4.4-0.8,5.9c1.5,4.7-0.1,5.3-4.7,1.8c-1.9-0.9-3.7-1.9-5.4-3
					c-1.5-0.9-3.5-0.3-4.4,1.1c-2.5,4.2-5.2,9-9.9,11.1c0.4-4.1,1.8-7.8,4.2-11.1c2-3.4-2.3-6-5-3.9c-4.5,3.5-9.1,5.4-14.3,6
					c0.2-0.3,0.3-0.5,0.5-0.8c1.2-0.6,1.7-1.6,1.6-2.6c4.7-3.2,9.8-5.7,15.3-7.2c0.9-0.2,1.5-0.8,1.8-1.4c1.1-0.4,1.8-1.3,1.7-2.8
					c-0.5-4.8-1-9.7-1.6-14.5c1.3-0.4,2.6-0.8,3.8-0.9c0.7,1.8,0.8,5.2,1.1,6.5c0.6,3.2,1.3,6.5,1.9,9.7
					C101.2,297.4,101.6,298,102.2,298.3L102.2,298.3z M154,380.5c-8.1,12.4-23.6,17.8-37.1,21.8c-14.6,4.3-29.7,5.1-43.4-2.4
					c-13.2-7.3-20.7-21.9-22.6-36.4c-2.2-17.1,4.3-35,16-47.7c0.6,0.8,1.5,1.3,2.6,1.3c5.4,0.2,10.2-0.7,14.7-2.5
					c-0.9,3-1.1,6.2-0.5,9.9c0.2,1.3,1.8,2.5,3.1,2.4c8.1-1.1,12.9-6,17-12.5c5.4,3.1,14.3,7.6,18.8,3.3c3.9-3.8,3-7.6,0.2-10.7
					c2-0.6,3.9-1.2,5.9-1.8c1.6-0.5,2.8-2.2,2.2-3.9c-0.1-0.4-0.2-0.8-0.4-1.1c17.8,6.6,29.9,26.2,31.9,46.1
					C163.7,358.3,160.5,370.3,154,380.5L154,380.5z"/>
				<path class="st11" d="M63.8,330.6c-5.2,7.4-7.7,16-7.6,25c0,2.8,4.3,2.8,4.3,0c-0.1-8.4,2.2-16,7-22.9
					C69.1,330.5,65.4,328.4,63.8,330.6L63.8,330.6z"/>
				<path class="st11" d="M59.2,363c-2.8,0-2.8,4.3,0,4.3S62,363,59.2,363z"/>
			</g>
			<path class="st11" d="M320.3,315c-15.9-16.8-10.9-44.8-22.1-64.3c-0.1-0.2-0.2-0.4-0.4-0.7c-0.1-0.2-0.3-0.4-0.5-0.6
				c-5.9-7.8-14.2-12.8-23.6-14.4c-0.3-4.6-0.1-9.2,0.7-13.8c0.7-4-5.5-5.8-6.2-1.7c-0.9,5-1.2,9.9-1,14.9c-1,0-2,0-3,0.1
				c-15.4,1-23.1,13.5-25.8,27.4c-3.9,19.9-3.5,42.8-0.4,62.8c2.8,18.1,12.2,35.5,27.1,46.5c21.8,16,76.4,26.4,79.5-13.9
				C346.2,337.2,332.7,328.1,320.3,315L320.3,315z M334.4,367.6c-1.4,0.2-2.9-0.1-4-1.2c-1.7-1.6-2.4-4.1-2.9-6.3
				c-1.1-4.8,0.4-10.2,0.9-15c0.5-4.8,0.1-9.7-0.9-14.5C337.5,340.9,342.4,355.2,334.4,367.6L334.4,367.6z M324.5,327.8
				c1.4,5,2,10.1,1.9,15.5c-0.2,6.4-2.1,12.5-0.6,18.9c0.7,3,2.9,7.1,6.2,7.5c0.3,0,0.6,0,1,0c-0.5,0.7-1.1,1.4-1.7,2
				c-2.1,2.2-4.5,3.9-7.3,5.1c-1.2-0.5-2.5-1.2-3.5-2.2c-3-2.7-3.1-7.6-3.1-11.4c0-6.1,0.7-12,0-18.1c-1.4-11.7-9.9-19.1-15.6-28.8
				c-3.5-5.9-5.7-12.5-6.1-19.4c-0.5-6.8,2.4-12.8,4.6-19c0.1-0.3,0.2-0.7,0.3-1c1.4,6.8,2.4,13.6,4,20.4
				C307.8,310.3,315,319.1,324.5,327.8L324.5,327.8z M292.3,253.2c3.5,5.8,5.6,12.1,7.1,18.5c-0.1,1.3-0.3,2.6-0.6,3.9
				c-1.7,6.8-5,12.5-5.3,19.7c-0.5,12.9,7.3,24.3,14.8,34c5,6.4,7.1,13.3,7.4,21.4c0.3,6.7-1.1,13.3,0.3,19.9c0.6,3,2.7,5.7,5.3,7.3
				c-0.9,0.3-1.8,0.5-2.8,0.8c-0.5-0.8-1.8-0.5-2,0.4c-2,0.4-4.1,0.5-6.3,0.6c-0.4-0.3-0.8-0.7-1.2-1.1c-1.2-1-2.3-2.2-3.4-3.3
				c-2.5-2.6-4.3-5.8-6-8.9c-3-5.6-4.7-11.9-6-18.1c-2.9-13.8-2.9-27.9-6.7-41.5c-1.7-6-4.6-11.3-7.3-16.9
				c-4.3-8.7-2.2-16.7,0.3-25.6c2-7,2.9-15.2-1.1-21.2C284.4,245.3,289.2,249,292.3,253.2L292.3,253.2z M281.6,373.5
				c-0.4-0.2-0.7-0.3-1.1-0.5c-3.2-10.5-5.5-21.2-6.8-32.1c-1.4-12.6,0.1-25.1-0.8-37.7c-0.4-4.6-2-8.8-3.9-12.9
				c-2.6-5.7-4.8-11.4-6.2-17.6c-1.2-5.1-4.1-24.8,1.1-32c1.8-0.2,3.7-0.3,5.6-0.1c0.6,0.2,1.3,0.3,1.9,0.3c1.1,0.2,2.3,0.4,3.4,0.7
				c6.5,5.4,5,14.8,3.1,22.1c-1.9,6.9-3.9,13.3-2.6,20.5c1.4,7.5,6.6,14.2,9,21.4c2.9,8.8,3.8,18.2,4.9,27.3
				c1.6,13.5,3.6,27,10.9,38.8c1.6,2.6,3.8,5.6,6.4,8.1C297.6,379.1,288.3,376.4,281.6,373.5L281.6,373.5z M270.3,367.1
				c-4.7-6.3-7-15.1-8.8-22c-2.9-11.5-3.7-23.4-5.1-35.2c-1.3-11-3.9-21.6-5.9-32.4c-2.2-11.6-2-24.6,6.1-34.1
				c0.1-0.1,0.2-0.3,0.2-0.5c1.5-0.9,3.2-1.5,4.9-1.9c-1.9,3.9-2.4,9.2-2.6,12.8c-0.7,13.1,2.6,25.8,8.1,37.5
				c6.5,14,2.9,30.6,4.1,45.6c0.9,11.8,3.2,23.5,6.6,34.8C275.2,370.3,272.7,368.8,270.3,367.1L270.3,367.1z M242.7,291.2
				c0.4-13.4-1-33,8.7-43.8c-3.7,6.9-4.6,14.8-4.1,22.8c1,14,5.5,27.7,7.2,41.7c1.6,13.2,2.8,26.4,6.5,39.2c1.2,4,2.6,8.4,4.7,12.3
				C246.2,345.9,242,317.6,242.7,291.2L242.7,291.2z"/>
			<g>
				<path class="st11" d="M400.4,457.9c-1-16.9-5.6-34.1-23.9-38.2c-2-0.5-4.1-0.7-6.1-0.7c0.2-4.9-0.1-9.8-1-14.7
					c-0.7-4.1-6.9-2.3-6.2,1.7c0.8,4.5,1,9,0.8,13.6c-9.3,1.7-18,7.2-23.6,14.6c-0.2,0.2-0.4,0.4-0.5,0.6c-0.2,0.2-0.3,0.5-0.4,0.7
					c-5.1,8.8-7.3,18-8.5,28.1c-0.8,6.8-0.7,13.3-2.7,19.9c-2.2,7.2-7.2,13.9-11.8,19.8c-14,17.9-35.6,31.5-43.7,53.4
					c-6.7,18,9.4,34.6,25.1,39.6c22,7,45.1-6.6,62.3-18.7C400.7,549.1,403.2,503.2,400.4,457.9L400.4,457.9z M382.4,428.6
					c6.6,3.6,9.8,11.2,11.4,19.8c-4.7-1.9-7.5-5.3-8.2-10c-0.4-1.7-3.1-2.2-3.9-0.5c-1.5,3.5-3.2,6.8-5.1,10.1
					c-6.3,10.8-11.2-0.8-9.4-8.4c0.4-1.6-1.5-3.6-3.1-2.4c-4.8,3.6-15.5,12.4-22.3,9c0.9-2.8,2.1-5.5,3.7-8.2
					C353.6,426.6,369.9,421.8,382.4,428.6L382.4,428.6z M395,482.1c0.3,19.1-1.6,38.5-9.2,56.2c-8,18.9-24.1,31.4-41.1,41.9
					c-17.1,10.6-40.7,17.4-57.8,3.1c-21.4-17.8,1.3-40.8,14.7-54.5c11.9-12.1,24-24.1,31.3-39.6c5.8-12.4,4.4-25.9,7.5-38.8
					c6.9,2.9,15.4-2.1,21.8-6.7c-0.2,5.7,1.3,11.9,6.3,14.8c6.2,3.6,11.7-7,14.8-13.9c2.1,3.8,5.4,6.5,10,8.2
					c0.4,0.2,0.8,0.1,1.1,0.1C395.6,463.4,394.9,474.6,395,482.1L395,482.1z"/>
				<path class="st11" d="M342.2,469.5c0.6,9.5-1.5,18.4-6.3,26.6c-1.4,2.4,2.3,4.5,3.7,2.1c5.2-8.8,7.5-18.6,6.8-28.7
					C346.2,466.8,342,466.8,342.2,469.5L342.2,469.5z"/>
				<path class="st11" d="M327.9,508c0,0.3,0,0.2-0.3,0.4c-2.5,1.3-0.3,4.9,2.1,3.7c1.5-0.8,2.4-2.4,2.4-4
					C332.1,505.2,327.9,505.2,327.9,508L327.9,508z"/>
			</g>
			<g>
				<path class="st11" d="M494.5,466.1c0-2-0.1-4-0.5-5.9c-0.5-2.7-4.6-1.5-4.1,1.1c0.3,1.8,0.4,3.5,0.3,5.3
					c-3.6,0.9-7.1,2.8-9.5,5.6c0,0,0,0.1-0.1,0.1c-0.1,0.1-0.1,0.1-0.2,0.2c0,0,0,0.1-0.1,0.1c-0.1,0.1-0.2,0.2-0.2,0.3
					c-5.5,10.4-3.6,22.2-12.9,30.8c-4.5,4.2-8.9,10.2-6.7,16.9c4.8,14.5,24.1,13.1,34.3,4.8c14.5-11.8,15.1-33,11.2-50.1
					C504.5,469,499.7,466.3,494.5,466.1L494.5,466.1z M496.9,506c-2.2-3.9,4.2-8,6.1-10.5c0.1-0.1,0.2-0.3,0.3-0.5
					c-0.1,6.8-1.3,13.2-4.4,18.8C499,511.2,498.4,508.6,496.9,506z M474.6,502.2c5-5.6,5.1-14,7-21.4c0.1,4.7,1.1,9.9,0.4,14.2
					c-1.2,7.3-5.4,11.4-11.9,14.2c-1.6,0.7-3.2,1.5-4.5,2.6C467.8,508.1,472.1,505,474.6,502.2L474.6,502.2z M464.4,517.9
					c0.6-6.4,8.8-6.5,12.8-9.8c3.1-2.6,5-5.8,6.2-9.6c1.2-3.8,1.4-7.9,1.2-11.8c-0.2-4.4-1.6-8.9,0.2-12.5c2.7-2.5,6.5-4.3,9.9-3.9
					c0.4,5.5,2.2,10.9-2.6,14.7c-2.9,2.3-4.2,5.2-5,8.8c-1.4,6.2-0.3,12.1-4.6,17.5c-1.2,1.4-13.7,14-15.2,11.3
					c-0.3-0.6-0.9-0.6-1.4-0.4C465.2,520.9,464.7,519.5,464.4,517.9L464.4,517.9z M468.7,525.2c1.6-0.3,3.4-1.5,4.7-2.5
					c4.6-3.7,11.7-8.9,13.6-14.8c2.4-7.2,0-17.4,7.5-21.9c5-3,3-10.1,2.4-15.1c0.6,0.2,1.1,0.6,1.6,1c1.8,5.5,1.4,11-1.3,16.2
					c-2.1,4-5.9,6.7-6.2,11.5c-0.1,2.6,0.1,5.2,0.2,7.8c0.3,5-2.1,7.7-6.1,10.3c-3.6,2.4-6,5.6-7.5,9.6
					C474.4,527.4,471.2,526.9,468.7,525.2L468.7,525.2z M489.6,523.7c-2.3,1.5-5.8,2.8-9.5,3.3c1.6-3.8,4.1-6.2,7.6-8.5
					c1.4-0.9,3.2-2.1,4-3.6c2.5-4.4,1.5-9.1,1.4-13.9c-0.1-6.3,6-10.9,7.9-16.6c0.9-2.6,1-5.5,0.7-8.2c0,0.1,0.1,0.1,0.1,0.2
					c1.7,4.1,1.3,9.9,1.5,14.4c-1,2-2.2,3.8-3.8,5.6c-1.8,2-3.9,3.3-5.1,5.8c-0.5,1.1-0.4,2.7,0.1,3.7c2.1,4.3,3.2,7.9,1.3,12.4
					C494.1,520.3,492,522.1,489.6,523.7L489.6,523.7z"/>
				<path class="st11" d="M581.5,489c-1-5-2-9.4-4.4-14c-0.1-0.1-0.2-0.2-0.2-0.3c0,0,0-0.1-0.1-0.1c-0.1-0.1-0.1-0.1-0.2-0.2
					c0,0,0,0-0.1-0.1c-2.3-2.6-5.8-4.7-9.5-5.7c-0.1-1.7,0-3.5,0.3-5.2c0.5-2.7-3.6-3.8-4.1-1.1c-0.3,1.9-0.5,3.8-0.5,5.8
					c-4.4,0-8.4,1.9-10.4,6.6c-6.4,15.5-4.3,38.6,7.7,50.8c7.7,7.8,31.1,14.1,35.9-0.3c2.2-6.7,0.8-11.9-3.6-17.2
					C587.2,501.8,583.1,497.2,581.5,489L581.5,489z M590.9,524c-0.3,0-0.7,0.1-0.9,0.5c-1.6,2.8-14-10-15.2-11.3
					c-4.5-4.7-3.6-11.5-4.6-17.5c-0.6-3.5-2.2-6.6-5-8.8c-4.6-3.6-3.2-8.8-2.7-14c3.2-0.7,6.9,0.2,9.9,3.1c1.6,3.2,0.8,7.3,0.4,11.2
					c-0.5,4.5-0.1,8.9,1.1,13.3c0.9,3.3,2.8,6.3,5.2,8.7c4,4,13.3,4,13.8,10.8C592.6,521.5,592,522.8,590.9,524L590.9,524z
					 M582.2,503.9c1.6,2.7,4.8,4.9,7.1,7.1c0.7,0.9,1.3,1.8,1.8,2.6c-0.8-0.5-1.6-1-2.5-1.5c-3.3-1.7-6.5-2.6-9.2-5.3
					c-2.5-2.5-3.6-6.2-4.3-9.6c-1-4.7,0.3-10.1,0.3-15.1C577.8,489.3,578.2,497.1,582.2,503.9L582.2,503.9z M558.2,516.2
					c-3-5.7-4.2-12.6-4.4-19.1c0,0.1,0.1,0.1,0.1,0.2c1.9,2.9,8.4,6.3,6.3,10.7C558.9,510.9,558.1,513.5,558.2,516.2L558.2,516.2z
					 M561.8,521.3C561.8,521.3,561.8,521.3,561.8,521.3c-2.1-4.2-1.9-8.2,0.3-12.2c0.8-1.5,1.3-3,0.8-4.6c-0.6-2.1-2.6-3.6-4.1-5
					c-2.1-1.9-3.7-4.2-4.9-6.7c0.1-3,0.3-6.1,0.5-9.1c0.1-1.7,0.5-3.2,1-4.5c-0.1,1.9,0,3.8,0.3,5.8c1,6.1,6.4,9.7,8,15.4
					c1.4,4.9-1.7,10.7,1,15.4c3.2,5.6,9.5,7.2,12.3,13.3c-1.4-0.2-2.9-0.5-4.3-1C568.1,526.9,564.5,524.5,561.8,521.3L561.8,521.3z
					 M581.5,529.3c-0.7,0-1.3,0-2,0c-1.3-3.4-3.1-6.5-6.1-8.6c-3.8-2.7-7.1-4.6-7.5-9.8c-0.2-2.6,0.3-5.2,0.3-7.8
					c0.1-4.8-2.7-8.1-5.4-11.7c-3.5-4.7-4-10.8-2.5-16.3c0.6-0.5,1.2-1,1.9-1.3c-0.6,4.3-2.2,11.2,1.5,13.5c7.8,5,6.2,12.9,7.9,20.9
					c0.8,3.7,10.9,16.4,17.5,18.7C585.6,527.8,583.7,528.6,581.5,529.3L581.5,529.3z"/>
				<path class="st11" d="M614.7,508.6c-1.8-19.6-5.9-39-9.9-58.3c-3.8-18.1-6.6-36.9-11.9-54.6c-3.5-11.9-10.2-22-20.2-29.3
					c-4.2-3.1-9.7-4.9-14.8-5.6c-5.6-0.8-11.7,0.3-12.4-5.9c10.6-7,8.5-15.9,8.4-28.4c0-1.7-1.1-2.7-2.4-3
					c-1.4-4.8-7.2-7.9-11.8-8.4c-13.1-1.3-27.7,0.7-40.8,2c-8.3,1-37,4.5-40.2,16.8c-0.8,0.5-1.4,1.4-1.3,2.6
					c0.8,10.2-1.5,19.7,8.3,25.9c0.7,0.4,1.4,0.8,2.2,1c-1.5,11.2-18,14.5-24.2,22.7c-7.2,9.6-8.4,21.2-8.8,32.8
					c-0.6,22.5,3.1,45.4,6.3,67.6c3,21,3.6,48.9,15.9,66.8c13.8,20,46.8,18.4,67.8,16.9c28.1-2.1,58-10.8,81.7-26.4
					C618.2,536.3,615.8,520.5,614.7,508.6L614.7,508.6z M442,438.1c2.9-13.4,17.2-17.6,28.8-20.8c12.8-3.5,25.9-6.1,39.1-8.2
					c14.3-2.2,28.7-3.3,43.2-3.7c11.6-0.3,34.4-3,39,11.4c-1.2,13.5-30.4,12.6-39.6,13.6c-12.3,1.4-24.6,2.7-36.9,4
					c-12.3,1.4-24.6,2.7-36.9,4c-3.8,0.4-31.5,5.7-36.6,0.6C442,438.8,442,438.5,442,438.1L442,438.1z M480,327.1
					c6.1-2.1,12.7-2.8,19-3.5c12.6-1.3,25.5-1.9,38.2-2.2c9.9-0.3,10.1,8.7,3,13c-5.5,3.4-14.2,4-20.5,5.2
					c-14.2,2.7-30.5,4.9-44.9,2.6c-4.3-0.4-6.9-3-7.7-8C470.2,330.7,475.8,328.6,480,327.1L480,327.1z M464.1,348.5
					c-0.1-1.2-0.2-2.3-0.2-3.5c4.2,2.5,9.8,3.7,13.4,4c13.3,1.1,26.8-0.6,40-2.6c7.9-1.2,22.8-2.8,30.2-9.4c0,0.6,0,1.1,0,1.7
					c0,5.8-2.6,9-6.2,11.3c-0.6,0.2-1.2,0.5-1.6,1c-1.5,0.9-3.1,1.6-4.7,2.4c-8.8,4.5-19,5.9-28.7,6.5c-9.4,0.6-18.9-0.2-28.3-1
					C471.9,358.4,465.1,357.6,464.1,348.5L464.1,348.5z M456.6,383.7c6.5-4.4,16.8-9.2,17.6-18.2c0-0.2,0-0.4,0-0.5
					c1.3,0.1,2.6,0.3,3.9,0.4c9.4,0.9,18.9,1.3,28.3,1c11.5-0.4,22.8-3,33-8c1,4,3.8,6.7,8.8,7.9c4.3,1.1,8.7,0.8,13,1.8
					c10.3,2.4,17.4,11.8,22,20.6c2.9,5.6,5,11.9,6.7,18.4c-4.3-3.3-10-4.9-15.7-5.4c-18.8-1.7-38.3,0-57,2.3
					c-18.3,2.2-36.5,5.9-54.1,11.2c-8.3,2.5-16.7,6.6-21.6,13.5c-0.1-2.5-0.1-5-0.2-7.5C441.3,406.2,443.4,392.5,456.6,383.7
					L456.6,383.7z M608.5,530.4c-1.9,11.9-24,18.3-33.4,22c-28.5,11.2-64,16.9-94.1,9c-28.7-7.5-28.6-43.3-32.3-67.5
					c-2.4-16-4.8-32.2-6.2-48.4c6,1.6,15.2-0.4,19.6-0.9c20.5-2.2,41-4.5,61.6-6.8c18.7-2,37.6-3.5,56.2-6.4
					c5.5-0.9,10.5-3.5,13.5-7.5c1.4,8.1,2.6,16.1,4.1,23.4c4.3,20.2,8.5,40.6,10.6,61.1C609,515.8,609.6,523.3,608.5,530.4
					L608.5,530.4z"/>
				<path class="st11" d="M524,449.1c-1.8-0.7-4.2-0.6-5.9,0.4c-2.3,1.4-2,4.1-0.8,6.1c0.1,0.1,0.2,0.3,0.3,0.3
					c2.5,2.9,6.8,1.3,8.4-1.8C527.2,452.1,526.1,450,524,449.1L524,449.1z M519.2,454.6c-0.4-0.7-0.8-1.4-0.7-2.2
					c0-0.4,0.3-0.8,0.6-1c1-0.7,2.4-0.8,3.6-0.5c0.5,0.1,1,0.4,1.4,0.7c0.3,0.3,0.4,0.6,0.3,0.9C524,454.6,520.7,456.7,519.2,454.6
					L519.2,454.6z"/>
				<path class="st11" d="M534.3,461.7c-1.8,1.6-1.8,4.8,0.2,6.2c1.5,1.1,3.8,0.8,5.2-0.2c1.9-1.3,2.3-3.5,1.1-5.4
					C539.2,459.9,536.4,459.9,534.3,461.7L534.3,461.7z M536,466.3c-1-0.3-1.1-1.8-0.6-2.6c0.7-1.2,2.7-1.7,3.6-0.4
					C540.2,465.2,537.9,466.9,536,466.3z"/>
				<path class="st11" d="M495.1,537.1c-1.5,1.5-2.3,3.8-2,5.8c0.4,2.7,3.2,3.2,5.5,2.9c0.2,0,0.3-0.1,0.4-0.2
					c1.6-0.5,2.6-2,2.9-3.6c0.3-1.8-0.4-3.4-1.4-4.8C499.1,535.4,496.8,535.6,495.1,537.1L495.1,537.1z M498.1,543.8
					c-0.7,0.1-1.5,0.1-2.1-0.2c-0.5-0.2-0.6-0.6-0.8-1.1c-0.2-1.1,0.3-2.5,1-3.5c0.3-0.4,0.8-0.8,1.1-0.9c0.4-0.1,0.7-0.1,1.1,0.2
					C500.2,539.6,500.7,543.2,498.1,543.8L498.1,543.8z"/>
				<path class="st11" d="M519,529.6c-1.5,1.5-2.3,3.8-2,5.8c0.4,2.7,3.2,3.2,5.5,2.9c0.2,0,0.3-0.1,0.4-0.2c1.6-0.5,2.6-2,2.9-3.6
					c0.3-1.8-0.4-3.4-1.4-4.8C522.9,527.9,520.6,528,519,529.6L519,529.6z M521.9,536.3c-0.7,0.1-1.5,0.1-2.1-0.2
					c-0.5-0.2-0.6-0.6-0.8-1.1c-0.2-1.1,0.3-2.5,1-3.5c0.3-0.4,0.8-0.8,1.1-0.9c0.4-0.1,0.7-0.1,1.1,0.2
					C524,532.1,524.5,535.7,521.9,536.3L521.9,536.3z"/>
				<path class="st11" d="M518.1,519.2c-0.5-2.2-2.6-3.2-4.7-2.9c-2.6,0.6-3.7,3.5-2.8,5.9c0.9,2.2,3.6,3.3,5.7,2.2
					C518.1,523.3,518.5,521,518.1,519.2z M515.4,522.3c-1.9,1.9-4.9-3.2-1.5-4C516.2,518,516.7,521,515.4,522.3z"/>
				<path class="st11" d="M578.5,454.8c0.2,0.1,0.3,0,0.5,0c1.8,0.2,3.7-0.7,4.8-2.2c1.1-1.5,1.1-3.3,0.7-5
					c-0.6-2.3-2.6-3.5-4.9-2.6C575.8,446.7,573.3,453.2,578.5,454.8L578.5,454.8z M579.8,447.3c0.9-0.7,1.7-0.8,2.2,0.1
					c0.5,0.8,0.7,2,0.5,2.8c-0.3,1.5-2,2.7-3.5,2.4C576.3,451.9,578.1,448.6,579.8,447.3z"/>
				<path class="st11" d="M468.5,469.5c0.4-2,0.1-4.8-2.4-5.1c-2-0.3-4,0.8-5.3,2.2c-1.5,1.5-1.9,3.6-0.6,5.4
					C462.8,475.1,467.7,473.1,468.5,469.5L468.5,469.5z M462.7,467.6c0.8-0.8,2-1.3,3-1.2c0.2,0,0.5,0.2,0.7,0.5
					c0.3,0.5,0.1,1.4,0,2c-0.5,2.2-3.7,3.5-4.9,1.1C461.3,469.3,462,468.3,462.7,467.6L462.7,467.6z"/>
			</g>
			<g>
				<path class="st11" d="M236.2,144.9c-1.5-1.9-3.3-3.2-5.2-4.6c-5.5-4.2-7-8.6-7.3-14.9c-0.3-6.6-3.9-12.3-8.4-16.8
					c-9-8.9-22.7-7.2-32.1-0.3c-9.5-10.5-26.9-28-38.6-11.8c-3.2,4.4-5.1,9.3-7.4,14.2c-3.6,7.6-11.2,8.8-18.3,10.8
					c-8.3,2.4-12.3,9.3-14.5,17.2c-2.9,10.3-4.3,22-5.6,32.6c-1.1,9.1,0,16.8,5.8,23.4c0,0.6,0.3,1.2,1,1.6c0.4,0.2,0.8,0.4,1.1,0.6
					l0,0c15.6,14,43.1,4.2,56,21.9c0.3,0.4,0.6,0.7,0.9,0.9c3.9,11.8,4.8,24.6,10.1,35.8c4.1,8.6,14.2,11.7,22.4,7.8
					c9-4.2,8.1-17.4,6.1-25c-1.9-7.5-4.8-13.8-5.3-21.6c-0.4-7.5,1.8-14.8,5.4-21.2c0.1-0.1,0.3-0.2,0.4-0.3
					c5.6-5.9,15.6-0.6,22.4-2.2c5.8-1.4,9.4-4.6,12.5-9.6C244.8,172.3,243.9,155,236.2,144.9L236.2,144.9z M195.3,236.7
					c2.1,6.1,3.3,11.9,0.3,18.1c-5,4.5-9.5,4.9-13.3,1.1c4.3-0.4,8.3-3,10.3-7c1.2-2.5-2.5-4.6-3.7-2.1c-1.9,3.8-5.9,5.6-9.9,4.7
					c-1.8-3-2.4-7.1-3.1-10.4c-2.1-10.3-4.4-19.9-8.5-29.6c-0.8-1.9-2.6-2-3.9-1.2c-7.3-6.3-16.9-8.4-26.8-9.9
					c-3.9-0.6-7.8-1.2-11.5-2.2c2.1-0.6,4.2-1.3,6.3-2.2c5.5-2.3,10.2-6,15.2-9.1c2.9-1.8,5.5-2.3,7.9-2.1c-0.3,0.7-0.3,1.5,0.4,2.2
					c2.3,2.4,4.2,5.1,5.5,8.2c1,2.5,5.2,1.4,4.1-1.1c-1.2-3-2.9-5.8-5-8.2c3,1,5.9,2.3,9.2,2.7c2.5,0.3,5.2-0.8,7.8-2.2
					c-0.4,4.8,0.2,9.5,1.9,14.1c0.9,2.6,5.1,1.5,4.1-1.1c-1.9-5.2-2.4-10.6-1.3-16c0.6-0.4,1.1-0.8,1.6-1.1c5.5-3.7,13.5-4,17.8,1.3
					c0.6,0.8,1.4,1.4,2.1,1.9c-1,0-2.1,0.4-2.8,1.4C189.3,202.5,189.2,219.2,195.3,236.7L195.3,236.7z M230.3,181.9
					c-5,1.8-9.9,3.1-15.3,3.2c-7.8,0-9.5-6.2-15-9.1c-8.1-4.3-15-0.1-21.9,4.6c-9.8,6.6-19.1-2.5-29.6,0.9
					c-11.4,3.7-20.2,14.6-31.9,13.8c-1.2-0.6-2.4-1.1-3.6-1.8c-12.8-7.4-7.3-24.5-5.4-36.1c1.3-8.1,1.9-16.8,5.8-24.2
					c4.3-8.3,16.8-5.7,23.1-11.3c5.9-5.3,8-12.6,11.7-19.4c8.7-15.9,26.9,6.4,32.4,12.6c1.2,1.3,3.3,1.2,4.5,0
					c14.9-14.1,31.9-1.7,32.3,15.9c0.3,10.4,9.3,12.2,14.8,19.4C238.7,158.5,237.6,174.1,230.3,181.9L230.3,181.9z"/>
				<path class="st11" d="M212.4,138.8c-1.9-2.2-4.4-0.8-6.8-0.1c-2.6,0.8-1.5,4.9,1.1,4.1c0.9-0.3,1.8-0.5,2.7-0.8
					c2.2,2.7,1.6,6.9-1.8,8.6c-1.1,0.5-1.3,1.9-0.8,2.9c1.1,1.9,3.7,5.9-0.1,7.5c-2.5,1.1-0.3,4.8,2.1,3.7c5.1-2.2,4.4-7.4,2.5-11.6
					c2.6-2.1,3.9-5.5,3.5-8.9C214.6,142.2,213.8,140.5,212.4,138.8L212.4,138.8z"/>
				<path class="st11" d="M160.9,126.7c-1.5-4.1-4.8-6-9.1-5.3c-2.1,0.3-3.8,2.3-4.8,4c-1.3,2.2,0,5.2-3.6,4.6
					c-3.2-0.6-6.7-1.4-8.7,1.8c-2.2,3.6,0.2,8.1,3.3,10.1c2.3,1.5,4.5-2.2,2.1-3.7c-0.7-0.5-3.8-4.6-0.7-4.6c0.9,0,1.9,0.3,2.8,0.5
					c1.4,0.3,3,0.6,4.4,0.2c1.2-0.4,2.4-1,3-2.1c0.4-0.6,0.6-1.4,0.7-2.2c0.3-2.5,4-8.5,6.4-2.2
					C157.8,130.4,161.9,129.3,160.9,126.7L160.9,126.7z"/>
				<path class="st11" d="M126,172.9c-1.5,0.2-3-1.2-3.1-2.6c-0.1-1.9,2-2.8,3.6-2.6c2.7,0.4,2.7-3.9,0-4.3
					c-4.1-0.5-7.6,2.9-7.8,6.9c-0.2,4.5,4.5,7.3,8.4,6.8C129.8,176.7,128.6,172.6,126,172.9z"/>
				<path class="st11" d="M181.9,151.4c-3.3-2.2-6.2-1-8.5,2c-1.5,1.9-1.8-0.8-3.6-1.8c-1.5-0.9-3.6,0.1-4.9,0.8
					c-3.4,1.6-4.5,5.7-4,9.1c0.4,2.7,4.5,1.6,4.1-1.1c-0.3-2.1,1.7-5.8,3.9-3.7c1.4,1.3,2.1,2.3,4,2.2c1.1,0,2-0.8,2.8-1.4
					c0.6-0.5,1.2-1.5,1.7-2.1c1,0.7,2.1,1.3,3.1,2c0,1,0,2.1-0.2,3.1c-0.4,2.7,3.7,3.9,4.1,1.1C184.8,158,185.2,153.6,181.9,151.4
					L181.9,151.4z"/>
				<path class="st11" d="M181.4,219.8c2.1,7.2,4.2,14.4,6.2,21.5c0.8,2.6,4.9,1.5,4.1-1.1c-2.1-7.2-4.2-14.4-6.2-21.5
					C184.7,216,180.6,217.1,181.4,219.8L181.4,219.8z"/>
			</g>
			<g>
				<path class="st11" d="M187.2,466.4c-19.5,20.6-48.6,20.4-74.5,14.8c-10.7-2.3-21.4-8.1-32.4-8.3c-2.6,0-6,1.8-7.6,3.8
					c-3.8,5.1,0.3,15.5-9.5,15.7c-8.8,0.1-16.9-0.2-22.1,8.5c-4.7,7.9-5,16.1,0.4,23.8c1.7,2.5,3.9,4.6,5.7,7.1
					c3.8,5.3-1.2,10.3-3.8,13.7c-2.5,3.2-5.5,7.2-5.5,11.5c0.1,10.6,6.4,17.5,16,21.2c3.2,1.2,15.2,0.1,16.3,3.5
					c0.8,2.5,1,5.7,2.8,7.7c7.2,8.3,14.8,6.6,24.7,4c24.7-6.5,45.8-23.3,60.4-43.8c9.3-13,17-21.8,32.7-26.2
					c10.3-2.8,20.8-4.4,29.9-10.4c19.1-12.8,11.5-42.5-4-54.8C205.5,449.3,194.9,457.8,187.2,466.4z M214.7,464.6
					c5.7,4.5,8.5,12.3,10.2,19c4.2,16-6.6,25.3-20.1,29.6c-8.5,2.7-17.3,4-25.6,7.3c-8.8,3.5-14.9,9.9-20.6,17.3
					c-7.4,9.8-14,19.5-23.2,27.8c-10.4,9.4-22.9,16.2-36.1,20.7c-5.7,2-14.3,5.3-19.7,0.9c-2.8-2.3-2.7-6.8-4.2-9.8
					c-3.6-7.5-13-3.6-19.8-5.3c-13-3.2-12.3-16.3-5.6-24.7c2.1-2.6,3.5-5.1,4.6-8.2c3.5-9.8-9.8-16.4-10.9-25.1
					c-0.8-6.7,4.4-13,10.4-15.1c5-1.7,11.2,0.5,16.5-0.8c2.4-0.6,4.9-2.9,6.2-5c2.8-4.8-3.9-16,9.5-12.9c9.2,2.1,18.1,5.9,27.4,7.9
					c9.8,2.1,19.8,3.1,29.8,2.9c18.2-0.3,35.5-6.7,48.1-20C198,463.8,204.8,456.8,214.7,464.6L214.7,464.6z"/>
				<path class="st11" d="M134.5,521.3c2.1-1.7,0.1-5.4-2.1-3.7c-16.8,12.8-42.9,13.8-63,17.8c-2.7,0.5-1.6,4.7,1.1,4.1
					C91.1,535.5,117.2,534.5,134.5,521.3L134.5,521.3z"/>
				<path class="st11" d="M92.2,561.6c-2.5,1.1-0.3,4.8,2.1,3.7c25-11.5,47.4-27.2,66.8-46.8c1.9-2-1.1-5-3-3
					C139,534.9,116.9,550.3,92.2,561.6z"/>
				<path class="st11" d="M91.6,500.2c-2.7-0.6-3.8,3.5-1.2,4.1c14.1,3.4,28.3,4.6,42.7,3.5c2.7-0.2,2.8-4.5,0-4.3
					C119.1,504.6,105.3,503.5,91.6,500.2L91.6,500.2z"/>
				<path class="st11" d="M208.4,469.2c3.6,5.6,11,13,5.4,19.4c-4.5,5.1-12.9,7.3-19.2,9c-2.7,0.7-1.6,4.8,1.1,4.1
					c7.4-1.9,18.1-5,22.6-11.8c5.5-8.4-1.6-15.8-6.1-22.9C210.6,464.8,206.9,466.9,208.4,469.2L208.4,469.2z"/>
			</g>
			<g>
				<path class="st11" d="M483.6,146.5c-7-8-22.2-7.4-33.5-4c-0.1-0.2-0.3-0.4-0.5-0.6c-9.3-9.3-21-13.4-33.8-12.3
					c-3.8-11-14.6-42.1-26.5-30.3c-5.8,5.8-0.7,14.1,2.4,19.7c0.9,1.6,10,16.2,8.8,17.1c-6.1,4.6-13,8.4-19.4,12.5
					c-0.3,0.2-0.5,0.4-0.7,0.6c-10,1.2-19.5,4.6-25.5,13.1c-11.5,16.5,0,39,6.5,55.4c6.4,16,14.9,38.7,29.6,49
					c9.9,6.9,23.9,7.8,31.5-1.8c2.2,1.4,4.7,2.3,7.6,2.3c5.8,0,10.3-1.7,13.9-4.5c9.5,5.2,25.2,8.5,31.2-3.2
					c4.4-8.5,5.1-18.4,6.8-27.8c2.3-12.5,4.6-25,6.9-37.5C492.2,178.2,495.2,159.8,483.6,146.5L483.6,146.5z M405.3,140.6
					c3-2.2,2.4-4.7,1.5-7.8c-1.9-6.8-7.8-14-11.2-20.2c1-7.2,2.5-8.2,4.3-2.8c1.2,2.3,2.4,4.6,3.5,6.9c2.8,5.6,5,11.3,7.2,17.2
					c0.7,1.8,2.1,2.5,3.9,2.2c11-1.6,21,1.6,29,8.9c-0.8,0.4-1.5,0.8-2.2,1.2c-0.2,0.1-0.4,0.3-0.6,0.4c-6.3-4.6-14.1-8-21.3-6.7
					c-8.3,1.6-13.7,4.9-17.2,9.5c-0.3-0.1-0.7-0.2-1.1-0.3c-2.6-0.2-5.4-0.3-8.2-0.4C397.2,146.2,401.4,143.5,405.3,140.6
					L405.3,140.6z M385.5,250.8c-7.9-11.6-13.9-25.1-19.1-38.1c-5-12.5-14.3-31.8-7.5-44.7c7.3-13.8,26.4-13.4,40.1-12.6
					c-5,13.2,0,32,2.9,46.3c3.2,15.9,6.1,31.9,10.4,47.5c1.1,3.9,3,8.1,5.7,11.5C408.7,274.1,392,260.4,385.5,250.8L385.5,250.8z
					 M482.3,196.7c-2.3,12.5-4.6,25-6.9,37.5c-1.4,7.3-1.6,17.6-6.7,23.5c-5.1,6-13.7,3.5-20,0.2c8.8-12.5,8.3-34.5,6.9-47.2
					c-0.4-4.1-6.9-4.1-6.4,0c1.5,13.3,3.4,33.9-7,44.6c-0.7,0.3-1.2,0.8-1.6,1.5c-1.8,1.5-3.8,2.7-6.2,3.7
					c-17.8,6.9-22.7-42.9-24.8-52.9c-3.5-17.3-15.3-45.2,1.8-57.9c10.2-7.5,21.2-1.3,29.8,5.5c6.9,5.4,7.3,26.3,8,34
					c0.4,4.1,6.8,4.1,6.4,0c-0.6-6.4-1.5-12.8-2.6-19.1c-1-5.2-1.7-13.4-5.5-17.5c-0.5-0.5-1-1.1-1.6-1.6
					c10.8-5.6,29.3-6.7,36.3,4.4C489.4,166.9,484.6,184.6,482.3,196.7L482.3,196.7z"/>
				<path class="st11" d="M370.4,165.4c-14.4,4.6-5.3,21.8-3.9,31.3c0.4,2.7,4.5,1.6,4.1-1.1c-1-6.8-9.6-22.7,0.9-26.1
					C374.1,168.7,373,164.6,370.4,165.4L370.4,165.4z"/>
				<path class="st11" d="M377.8,202.1c-2.8,0-2.8,4.3,0,4.3S380.5,202.1,377.8,202.1z"/>
			</g>
			<g>
				<path class="st11" d="M450-43.4c0.4-6.3,0.2-11.1-4.2-15.9c-2.5-2.7-7.5-3.5-10.6-1.6c-5.8,3.4-0.3,20.5-9,20.9
					c-0.5,0-1,0.2-1.4,0.4c-6.2,0.6-12.3,1.7-18.4,3.4c-7.3,2.1-7.1,7.5-7,14.5c-10.9,16-25.5,28.4-43.1,37
					c-20.4,9.9-42.2,7.2-63.4,13.1c-1,0.3-2,1.2-2.2,2.2c-3,13.9,11.3,20.7,22.1,25.3c16.9,7.1,36,7.4,53.6,3.3
					c31.1-7.2,70.4-27,78.5-60.6c4.3-3.7,6.4-11.4,6.9-16.7C452.4-26.5,449.5-34.9,450-43.4L450-43.4z M408.1-30
					c7.9-2.6,16.1-3.5,24.4-3.6c2.7,0,3.6-2.8,2.8-4.7c1.4-1.9,2.3-4.2,2.5-6.8c0.1-1.1,0.2-2.2,0.3-3.3c-0.3-8.5,1.6-7.9,5.8,1.9
					c0,3.4-0.4,6.8-0.3,10.2c0.2,7.9,2.6,15.1,1.1,23c-0.5,5.1-3.5,6.6-8.9,4.4c-1.5-2-2.7-3.8-4.2-5.8c-2.8-3.6-7.3-5-11.4-5.9
					c-2-0.5-4.5-0.6-6.6-0.8c-1.6-0.2-3.2-0.5-4.8-0.8c-0.4-0.2-0.6-0.3-1-0.5c0.6-1.7-0.5-3.3-2-3.9C406-27.6,406.8-28.8,408.1-30
					L408.1-30z M381.8,47.3c-25.1,10.5-58,13-80.8-4.8c-12-9.3,5.9-10.3,11.8-10.8c5.2-0.4,10.5-0.6,15.6-1.4
					c10.9-1.7,21.1-4.9,31.1-9.4c18.1-8.2,33.4-21.8,44.6-38c4.6,1.6,9.2,1.9,14.2,2.7c9.8,1.4,9.9,12.2,17.5,14.7
					c0.6,0.2,1.2,0.3,1.7,0.4C429.7,25.5,404.5,37.8,381.8,47.3z"/>
				<path class="st11" d="M401.1-2.4c-5.9,7.2-12.8,13.2-20.9,17.8c-2.4,1.4-0.2,5.1,2.1,3.7c8.4-4.8,15.7-11,21.8-18.5
					C405.8-1.5,402.8-4.5,401.1-2.4L401.1-2.4z"/>
				<path class="st11" d="M368.4,23.6h-1.1c-2.8,0-2.8,4.3,0,4.3h1.1C371.2,27.9,371.2,23.6,368.4,23.6z"/>
			</g>
			<g>
				<path class="st11" d="M450,596.6c0.4-6.3,0.2-11.1-4.2-15.8c-2.5-2.7-7.5-3.5-10.6-1.6c-5.8,3.4-0.3,20.5-9,20.9
					c-0.5,0-1,0.2-1.4,0.4c-6.2,0.6-12.3,1.7-18.4,3.4c-7.3,2.1-7.1,7.5-7,14.5c-10.9,16-25.5,28.4-43.1,37
					c-20.4,10-42.2,7.2-63.4,13.1c-1,0.3-2,1.2-2.2,2.2c-3,13.9,11.3,20.8,22.1,25.3c16.9,7.1,36,7.4,53.6,3.3
					c31.1-7.2,70.4-27,78.5-60.6c4.3-3.7,6.4-11.4,6.9-16.7C452.4,613.5,449.5,605.1,450,596.6L450,596.6z M408.1,610
					c7.9-2.6,16.1-3.5,24.4-3.6c2.7,0,3.6-2.8,2.8-4.7c1.4-1.9,2.3-4.2,2.5-6.8c0.1-1.1,0.2-2.2,0.3-3.3c-0.3-8.5,1.6-7.9,5.8,1.9
					c0,3.4-0.4,6.8-0.3,10.2c0.2,7.8,2.6,15.1,1.1,23c-0.5,5.1-3.5,6.6-8.9,4.4c-1.5-2-2.7-3.8-4.2-5.8c-2.8-3.5-7.3-5-11.4-6
					c-2-0.5-4.5-0.6-6.6-0.8c-1.6-0.2-3.2-0.5-4.8-0.8c-0.4-0.2-0.6-0.3-1-0.5c0.6-1.7-0.5-3.3-2-3.8
					C406,612.3,406.8,611.2,408.1,610L408.1,610z M381.8,687.3c-25.1,10.5-58,13-80.8-4.8c-12-9.3,5.9-10.3,11.8-10.8
					c5.2-0.4,10.5-0.6,15.6-1.4c10.9-1.7,21.1-4.9,31.1-9.4c18.1-8.2,33.4-21.8,44.6-38c4.6,1.6,9.2,1.9,14.2,2.7
					c9.8,1.4,9.9,12.2,17.5,14.7c0.6,0.2,1.2,0.3,1.7,0.4C429.7,665.4,404.5,677.8,381.8,687.3L381.8,687.3z"/>
				<path class="st11" d="M401.1,637.6c-5.9,7.2-12.8,13.2-20.9,17.8c-2.4,1.4-0.2,5,2.1,3.7c8.4-4.8,15.7-11,21.8-18.5
					C405.8,638.5,402.8,635.5,401.1,637.6z"/>
			</g>
			<g>
				<path class="st11" d="M663.6,134.3c-2.4-0.8-4.8-1.4-7.2-2c10.7-15.5,19.3-32.1,25.8-49.9c3.8-10.3,6.7-21.1,8.3-32
					c0.8-5.3,1.8-15.8-2.6-20.1c-12.2-12.2-19.2,23.6-20.5,28c-5.5,18-11.8,36-16.8,54.3c-0.3-21.7-0.1-43.7-2.1-65.2
					c-0.7-7.7-2.7-14.9-6.3-21.7c-3.9-7.2-7-8.6-14.4-7.1c-1,0.2-2,1.2-2.2,2.2c-7.5,30.4,2.9,59.3,10.6,88.6
					c-8-16-15.4-32.2-22.3-48.7c-2.5-6-5-17.3-11.8-20.4c-2.7-1.2-10.1-3.9-12,0.2c-7.5,16.1-0.5,31.2,9.4,44.5
					c11.8,16.1,25.4,31,39.5,45.1c-17.5-0.2-33.4,6.5-43.5,24.1c-6.3,11-5.6,24.6-0.7,35.9c7.4,17.2,35.3,22.1,33,43.8
					c-0.4,3.3,4.5,4.2,6,1.6c8.1-13.9,16.3-26.1,29.8-35.3c10.5-7.1,20.6-13.3,26.8-24.8C701,154.9,680.3,140.1,663.6,134.3
					L663.6,134.3z M673.5,59.9c1.2-4,2.5-8.1,3.7-12.1c0.4-1.3,0.8-2.7,1.2-4c0.2-5.2,2.2-5.6,6.1-1.3c1,14.8-5.9,31.7-11.2,45.2
					c-5,12.8-11.6,25-19.2,36.4c3.3-13.5,7.7-26.7,11.8-39.9C668.5,76.1,671,68,673.5,59.9z M647.6,124.4c-0.2,1.1-0.5,2.1-0.7,3.2
					c-0.2-1.2-0.4-2.3-0.7-3.4C646.7,124.3,647.2,124.4,647.6,124.4L647.6,124.4z M629.5,52.9c-0.5-4.2-2.3-27.8,2.5-28.7
					c12.3-2.5,12.3,69,12.3,91.3c-2.9-12.1-6.6-24-9.8-36.1C632.2,70.6,630.5,61.8,629.5,52.9L629.5,52.9z M593,55.3
					c0.2-2,0.3-4,0.5-6c6.6-2.7,10.3-0.9,11.2,5.5c1.5,3.7,3,7.4,4.6,11.2c2.7,6.4,5.5,12.8,8.3,19.2c4,8.9,8.2,17.8,12.6,26.5
					c-3.9-4.2-7.7-8.5-11.5-12.9C608,86.3,594.5,72.4,593,55.3L593,55.3z M671.7,186.7c-0.1-0.1-0.2-0.2-0.3-0.3
					c-16.5-8.1-34-11.7-52.4-10.4c-2.7,0.2-2.8,4.4,0,4.3c17.1-1.2,33.4,1.9,48.8,9.2c-1.6,1.1-3.2,2.1-4.5,3
					c-5.1,3.4-9.6,7-13.7,10.9c-1.5-0.9-2.9-1.8-4.4-2.7c-2.3-1.5-4.5,2.2-2.2,3.7c1.2,0.7,2.3,1.4,3.5,2.1
					c-5,5.3-9.3,11.1-13.4,17.4c-2.1-6.8-7.1-12.5-12.9-17.4c-1.6-1.3-3.1-2.6-4.6-3.9c6.8-3.4,14.5-5.7,21.7-2.2
					c2.5,1.2,4.6-2.5,2.2-3.7c-9.2-4.5-18.8-1.6-27.4,2.9c-3.5-3-6.6-6.1-9-9.5c1.1-3.2,3.7-5.6,6.9-6.6c2.6-0.8,1.5-4.9-1.1-4.1
					c-3.5,1-6.5,3.3-8.4,6.3c-2.1-4.2-3.3-9.1-3.1-15.2c0.3-0.1,0.7-0.2,1-0.5c4.8-4.6,10.8-7.1,17.5-7.1c2.8,0,2.8-4.3,0-4.3
					c-6.5,0.1-12.6,2.2-17.7,6c3-13,14.6-23.4,27-27.1c12-3.7,25.3-0.7,36.8,2.9c9.8,3.4,20,8.4,23.9,18.7c0.8,2.1,1.1,4.2,1,6.2
					c-10-4.8-20.5-7.7-31.6-8.9c-2.7-0.3-2.7,4,0,4.3c10.8,1.1,21.1,4.1,30.8,9C683.8,176.4,677.8,182.2,671.7,186.7L671.7,186.7z"
					/>
				<path class="st11" d="M640.7,157c-3.3-0.8-6.7-1.2-10.1-1c-2.7,0.1-2.8,4.4,0,4.3c3-0.1,6,0.1,9,0.9
					C642.2,161.8,643.4,157.7,640.7,157L640.7,157z"/>
			</g>
			<g>
				<path class="st11" d="M23.6,134.3c-2.4-0.8-4.8-1.4-7.2-2c10.7-15.5,19.3-32.1,25.8-49.9c3.8-10.3,6.7-21.1,8.3-32
					c0.8-5.3,1.8-15.8-2.6-20.1C35.6,18,28.7,53.8,27.3,58.2c-5.5,18-11.9,36-16.8,54.3c-0.3-21.7-0.1-43.7-2.1-65.2
					c-0.7-7.7-2.7-14.9-6.3-21.7c-3.9-7.2-7-8.6-14.4-7.1c-1.1,0.2-2,1.2-2.2,2.2C-22,51.1-11.6,80-3.9,109.3
					c-8-16-15.4-32.2-22.3-48.7c-2.5-6-5-17.3-11.8-20.4c-2.7-1.2-10.1-3.9-12,0.2c-7.5,16.1-0.5,31.2,9.4,44.5
					c11.9,16.1,25.4,31,39.5,45.1c-17.5-0.2-33.4,6.5-43.5,24.1c-6.3,11-5.6,24.6-0.7,35.9c7.4,17.2,35.3,22.1,33,43.8
					c-0.4,3.3,4.5,4.2,6,1.6c8.1-13.9,16.3-26.1,29.8-35.3c10.5-7.1,20.6-13.3,26.8-24.8C61,154.9,40.3,140.1,23.6,134.3L23.6,134.3
					z M33.5,59.9c1.2-4,2.5-8.1,3.7-12.1c0.4-1.3,0.8-2.7,1.2-4c0.2-5.2,2.2-5.6,6.1-1.3c1,14.8-5.9,31.7-11.1,45.2
					c-5,12.8-11.6,25-19.2,36.4C17.6,110.6,22,97.4,26,84.2C28.5,76.1,31,68,33.5,59.9z M7.6,124.4c-0.2,1.1-0.5,2.1-0.7,3.2
					c-0.2-1.2-0.4-2.3-0.7-3.4C6.7,124.3,7.2,124.4,7.6,124.4L7.6,124.4z M-10.5,52.9C-11,48.7-12.8,25.1-8,24.1
					c12.3-2.5,12.3,69,12.3,91.3c-2.9-12.1-6.6-24-9.8-36.1C-7.8,70.6-9.5,61.8-10.5,52.9L-10.5,52.9z M-47,55.3c0.2-2,0.3-4,0.5-6
					c6.6-2.7,10.3-0.9,11.2,5.5c1.5,3.7,3,7.4,4.6,11.1c2.7,6.4,5.5,12.8,8.3,19.2c4,8.9,8.2,17.8,12.6,26.5
					c-3.9-4.2-7.7-8.5-11.5-12.9C-32,86.3-45.5,72.4-47,55.3L-47,55.3z M31.7,186.7c-0.1-0.1-0.2-0.2-0.4-0.3
					c-16.5-8.1-34-11.7-52.4-10.4c-2.7,0.2-2.8,4.4,0,4.3c17.1-1.2,33.4,1.9,48.8,9.2c-1.6,1.1-3.2,2.1-4.6,3
					c-5.1,3.4-9.6,7-13.7,10.9c-1.5-0.9-2.9-1.8-4.4-2.7c-2.3-1.5-4.5,2.2-2.2,3.7c1.2,0.7,2.3,1.4,3.5,2.1
					c-5,5.3-9.3,11.1-13.4,17.4c-2.1-6.8-7.1-12.5-12.9-17.4c-1.6-1.3-3.1-2.6-4.6-3.9c6.8-3.4,14.5-5.7,21.7-2.2
					c2.5,1.2,4.6-2.5,2.2-3.7c-9.2-4.5-18.8-1.6-27.4,2.9c-3.5-3-6.6-6.1-9-9.5c1.1-3.2,3.7-5.6,6.9-6.6c2.6-0.8,1.5-4.9-1.1-4.1
					c-3.5,1-6.5,3.3-8.4,6.3c-2.1-4.2-3.3-9.1-3.1-15.2c0.3-0.1,0.7-0.2,1-0.5c4.8-4.6,10.8-7.1,17.5-7.1c2.8,0,2.8-4.3,0-4.3
					c-6.5,0.1-12.6,2.2-17.7,6c3-13,14.6-23.4,27-27.1c12-3.7,25.3-0.7,36.8,2.9c9.8,3.4,20,8.4,23.9,18.7c0.8,2.1,1.1,4.2,1,6.2
					c-10-4.8-20.5-7.7-31.6-8.9c-2.7-0.3-2.7,4,0,4.3c10.9,1.1,21.1,4.1,30.8,9C43.8,176.4,37.8,182.2,31.7,186.7L31.7,186.7z"/>
				<path class="st11" d="M0.7,157c-3.3-0.8-6.7-1.2-10.1-1c-2.7,0.1-2.8,4.4,0,4.3c3.1-0.1,6,0.1,9,0.9
					C2.2,161.8,3.4,157.7,0.7,157z"/>
			</g>
		</g>
	</g>
</g>
</svg>
