<?xml version="1.0" encoding="UTF-8"?><svg id="Layer_1" xmlns="http://www.w3.org/2000/svg" xmlns:xlink="http://www.w3.org/1999/xlink" viewBox="0 0 746.28 767.04"><defs><style>.cls-1{clip-path:url(#clippath);}.cls-2{fill:#00b2b0;}.cls-3{fill:#ffde17;}.cls-4{fill:#f7941d;}.cls-5{fill:#fff;}.cls-6{fill:#f3796d;}.cls-7{fill:#ffc52d;}.cls-8{fill:#e42557;}.cls-9{fill:#9474b4;}.cls-10{fill:#282f39;}.cls-11{fill:#39b54a;}</style><clipPath id="clippath"><rect class="cls-5" x="53.14" y="61.91" width="640" height="640"/></clipPath></defs><rect class="cls-5" x="53.14" y="61.91" width="640" height="640"/><g class="cls-1"><g><path class="cls-3" d="M286.74,612.96c-3.64-2.64-8.24-2.88-12.42-1.55-1.86-.19-3.78-.12-5.7,.25-15.35,2.91-26.51,16.06-28.24,31.28-.87,7.66,1.25,15.06,4.89,21.76,4.88,8.99,13.19,12.99,23.11,13.19,15.61,.32,28.02-10.83,33.39-24.58,5.89-15.08-3.06-31.65-15.04-40.35Z"/><path class="cls-8" d="M109.9,325.07c-.51-1.04-1.25-2.04-2.1-2.99-1.69-7.02-8.08-12.29-15.55-12.34-1.93-.01-3.86-.03-5.79-.04-7.39-.05-13.18,4.97-15.43,11.75-2.63,7.94-2.6,16.42-.64,24.5,3.37,13.9,17.37,17.31,29.05,11.86,7.96-3.72,12.72-12.22,13.38-20.71,.34-4.37-1.06-8.19-2.92-12.03Z"/><path class="cls-4" d="M258.7,123.57c8.23,2.05,16.26,3.14,24.63,1.1,8.75-2.14,15.58-9.46,18.65-17.63,7.74-20.61-16.39-35.31-33.53-25.65-12.03,2.52-21.16,13.46-21.49,26.75-.17,6.96,4.99,13.75,11.75,15.43Z"/><path class="cls-2" d="M584.33,225.11c9.21,0,19.48,1.27,25.09-7.93,4.44-7.26,5.9-14.62,4.44-22.99-1.36-7.82-8.77-13.67-15.94-15.78-2.23-.66-4.5-.9-6.74-.76-2.09-1.02-4.41-1.61-6.86-1.61-8.72,0-16,7.28-16,16,0,5.69,0,11.38,0,17.07,0,8.72,7.28,16,16,16Z"/><path class="cls-8" d="M465.43,368.37c-.69-.87-1.43-1.73-2.23-2.55-6.09-6.24-16.52-6.11-22.63,0-.95,.95-1.72,1.99-2.38,3.09-.67,.52-1.33,1.07-1.94,1.64-5.82,5.44-7.78,14.32-7.27,21.97,.29,4.35,1.54,8.16,4.69,11.31,3.3,3.3,6.88,4.1,11.31,4.69,5.15,.68,10.7-.04,15.57-1.83,4.93-1.82,10.22-5.51,11.18-11.18,1.01-6.01,.75-11.86-.99-17.26-.45-3.88-2.4-7.29-5.31-9.89Zm-24.47,20.82c.29,.64,.41,1.04,0,0h0Z"/><path class="cls-8" d="M418.66,125.27c20.48-2.89,39.17-6.86,55.46-20.38,12.04-10,30.65-33.57,14.57-48.09-2.53-2.29-5.12-4.04-7.75-5.35-3.33-10.21-16.74-17.25-26.41-7.21-10.15,10.55-20.16,21.09-34.4,25.78-16.33,5.37-33.36,9.15-49.95,13.65-12.74,3.46-14.13,17.6-7.06,26.74,13.33,17.23,35.85,17.63,55.54,14.85Zm48.23-44.95s.02,0,0,0h0Z"/><path class="cls-8" d="M418.66,765.75c20.48-2.89,39.17-6.86,55.46-20.38,12.04-10,30.65-33.57,14.57-48.09-2.53-2.29-5.12-4.04-7.75-5.35-3.33-10.21-16.74-17.25-26.41-7.21-10.15,10.55-20.16,21.09-34.4,25.78-16.33,5.37-33.36,9.15-49.95,13.65-12.74,3.46-14.13,17.6-7.06,26.74,13.33,17.23,35.85,17.63,55.54,14.85Zm48.23-44.95s.02,0,0,0h0Z"/><path class="cls-8" d="M639.74,490.19c5.15-10.48-3.39-26.96-18.45-23.36-27.03,6.48-53.07,15.64-78.44,26.96-24.35,10.87-48.17,23.05-49.13,52.91-.39,12.13,4.19,24.96,8.59,36.05,4.73,11.91,10.63,25.78,21.27,33.59,10.32,7.58,25.2,7.62,37.52,7.67,13.7,.05,27.62-2.55,40.66-6.59,26.08-8.09,47.66-22.84,51.6-51.39,3.64-26.39-3.02-51.89-13.62-75.84Zm-20.54,57c-.66-1.98-1.72-3.78-3.08-5.33,1.82-1.72,3.57-3.52,5.2-5.42,.65,3.32,1.19,7.03,1.46,10.86-1.17-.21-2.37-.25-3.58-.11Zm-77.56,42.68c-3.74-5.08-6.68-10.84-9.08-16.85,5.13-1.75,10.21-4.06,15.01-6.31-1.47,2.08-2.91,4.18-4.32,6.29-4.75,7.17-2.7,14.17,2.21,18.64-1.74-.33-3.16-.87-3.83-1.77Z"/><path class="cls-9" d="M436.15,496.08c-.95-.55-1.9-.97-2.83-1.33-3.45-11.02-21.23-16.88-29.76-4.02-6,9.04-8.41,19.32-11.04,29.69-3.04,11.96-8.32,23-14.23,33.78-10.95,19.97-30,39.61-30.79,63.55-.62,18.76,10.86,39.5,30.78,42.45,24.77,3.66,43.2-18.59,55.2-37.26,13.16-20.46,16.93-44.43,19.67-68.11,2.32-20.04,3.25-47.13-17-58.75Zm-14.56,55.07c-.48,4.74-1.06,9.46-1.8,14.15,.43-4.2,.94-9.12,1.8-14.15Z"/><path class="cls-2" d="M262.89,555.88c18.53-7.55,10.25-37.95-8.93-30.67-15.52,5.89-30.96,12.46-46.9,17.13-15.25,4.47-31.45,1.15-47.06,2.29-35.86,2.61-58.6,35.29-53.08,70.05,2.49,15.69,18.31,29.59,34.03,30.15,18.04,.65,32.02-10.35,45.99-20.24,15.69-11.11,31.38-22.22,47.08-33.33,13.42-9.5,27.3-17.8,28.87-35.38Z"/><path class="cls-6" d="M125.23,442.48c5.04,7.66,11.9,14.38,19.51,19.7,22.66,15.84,46.68-.19,61.47-18.31,14.73-18.03,12.06-45.91,4.68-66.66-19.66-55.2-92.53-13.05-100.11,28.61-2.98,16.38,3.27,29.69,14.45,36.65Z"/><path class="cls-2" d="M372.32,440.57c51.9-16.49,4.46-94.86-13.49-120.17-15.81-22.3-39.51-15.31-54.09,3.93-14.84,19.59-9.12,47.9-1.6,68.93,1.54,4.31,3.08,8.49,4.99,12.36-.07,6.91,.97,13.57,4.68,20.34,9.8,17.86,42.34,20.07,59.5,14.61Z"/><path class="cls-6" d="M481.92,201.46c-20.32-.04-39.71,5.22-57.32,15.33-18.96,10.88-28.33,26.4-20.81,48.02,6.29,18.08,15.27,38.17,29.5,51.41,17.95,16.7,42.04,12.2,62.68,3.97,19.89-7.93,32.51-20.04,32.32-42.62-.08-9.68-1.78-19.55-2.73-29.18-.98-9.92-.91-21.08-5.77-30.08-6.59-12.19-17.44-15.83-28.01-13.51-2.47-2.04-5.75-3.33-9.87-3.34Zm11.4,39.83c.15,.89,.3,1.78,.42,2.68-.3-.69-.64-1.35-1.02-1.98,.19-.24,.4-.46,.6-.7Z"/><path class="cls-11" d="M209.21,270.37c2.86-.22,6.25,1.27,5.08-.72,2.28,3.35,3.54,8.01,5.15,11.63,3.97,8.88,8.74,17.39,13.84,25.67,7.43,12.08,25,9.37,29.24-3.82,4.07-12.65-.25-25.43,2.95-38.05,3.5-13.8,19.36-19.93,20.29-34.88,.82-13.05-9.02-24.83-16.6-34.58-8.76-11.26-18.96-23.44-34.1-24.96-2.46-.25-4.8-.22-7.05,0-2.55-3.15-6.55-5.13-12.04-4.73-19.72,1.47-30.21,16.29-39.82,31.98-9.74,15.9-18.52,35.95-9.67,54.17,8.48,17.46,25.31,19.64,42.72,18.29Zm28.14-64.52c-3.95,2.97-7.9,5.94-11.86,8.91-.53,.4-1.07,.83-1.62,1.28,.23-.75,.46-1.51,.69-2.25,.94-3.15,3.22-11,7.4-11.44,1.25-.13,3.18,1.27,5.39,3.5Z"/><path class="cls-7" d="M96.9,249.08c3.61-14.26,3.97-32.07-3.41-45.17-6.79-12.06-21.43-13.23-31.94-6.49-25,1.56-59.38,16.54-54.14,44.6,2.55,13.69,15.12,24.47,25.21,33.12,12.9,11.05,26.17,18.18,42.64,10.13,12.42-6.07,18.53-23.92,21.63-36.18Z"/><path class="cls-7" d="M736.9,249.08c3.61-14.26,3.97-32.07-3.41-45.17-6.79-12.06-21.43-13.23-31.94-6.49-25,1.56-59.38,16.54-54.14,44.6,2.55,13.69,15.12,24.47,25.21,33.12,12.9,11.05,26.17,18.18,42.64,10.13,12.42-6.07,18.53-23.92,21.63-36.18Z"/><g><path class="cls-10" d="M305.78,628.08c4.17,7.75,4.94,15.88,.48,23.68-5.26,9.2-18.31,8.29-27.13,7.62,1.07-1.07,2.13-2.13,3.2-3.2,0,7.19,2.33,14.02,2.32,21.24,0,1.85-1.46,3.06-3.2,3.2-10.54,.85-20.05-1.61-28.88-7.44-1.22-.8-1.85-2.16-1.47-3.61,1.76-6.66,4.34-12.85,7.09-19.15,.38,1.46,.76,2.92,1.15,4.38-9.42-5.22-17.86-9.19-21.21-20.12-2.84-9.25,5.48-17.41,12.5-21.59,19.69-11.72,43.13-2.74,55.16,14.99,2.32,3.43-3.22,6.62-5.53,3.23-8.29-12.22-21.04-18.73-35.85-16.42-8.1,1.27-16.86,5.82-19.89,13.87-4.1,10.91,11.41,16.83,18.05,20.51,1.66,.92,1.83,2.81,1.15,4.38-2.52,5.79-4.83,11.51-6.44,17.62-.49-1.2-.98-2.41-1.47-3.61,7.94,5.24,16.17,7.33,25.65,6.57-1.07,1.07-2.13,2.13-3.2,3.2,.01-7.2-2.33-14.03-2.32-21.24,0-1.65,1.46-3.33,3.2-3.2,4.7,.35,9.24,.68,13.94-.02,11.22-1.67,11.32-13.95,7.18-21.65-1.95-3.64,3.57-6.87,5.53-3.23Z"/><path class="cls-10" d="M282.91,639.26c-1.59,3.43-3.18,6.86-4.77,10.28-1.09,2.34-3.19,6.69-6.65,5.38-6.21-2.35-7.78-12.67-7.77-18.42,0-4.13,6.41-4.13,6.4,0,0,2.22,.25,4.31,.8,6.47,.28,1.09,.68,2.17,1.14,3.2,.3,.64,.62,1.26,.97,1.88,1.11,1.24,.53,1.58-1.74,1.02,1.21-1.62,1.9-3.99,2.75-5.83,1.11-2.4,2.23-4.8,3.34-7.2,1.74-3.74,7.25-.49,5.53,3.23h0Z"/></g><path class="cls-10" d="M609.51,196.7c-4.57-11.31-18.93-19.63-30.73-20.54-.15-.02-.3-.04-.46-.04-.16,0-.33-.03-.48-.04-2.06-.09-3.09,1.46-3.09,3.06-.04,.31-.05,.64,0,.99,1.64,10.48-1.55,17.98-6.46,26.89-2.59,4.68-.58,9.8,1.73,14.06,5.78,10.64,18.87,13.47,28.85,7.71,10.78-6.22,15.15-20.92,10.63-32.1Zm-5.16,4.19c.81,2.02,1.09,4.18,.95,6.35-.31-.24-.67-.44-1.15-.48-4.5-.38-8.74-1.52-12.68-3.32v-16.64c5.71,3.36,10.58,8.38,12.88,14.09Zm-22.93-17.96c1.94,.37,3.88,.97,5.78,1.76v16.46c-2.4-1.5-4.65-3.29-6.73-5.34,.97-4.28,1.26-8.51,.95-12.88Zm4.29,42.46c-6.95-1.13-14.67-10.09-10.56-17.55,1.37-2.49,2.98-4.74,3.99-7.41,6.98,6.21,15.56,9.82,25.01,10.61,.18,.01,.32-.04,.47-.06-2.38,8.37-10.51,15.77-18.91,14.41Z"/><path class="cls-10" d="M44.97,644.38c-.15-.02-.3-.04-.46-.04-.16-.01-.33-.03-.48-.04-2.06-.09-3.09,1.46-3.09,3.06-.04,.31-.05,.64,0,.99,1.64,10.48-1.55,17.98-6.46,26.88-2.58,4.68-.58,9.8,1.73,14.06,5.78,10.64,18.87,13.47,28.85,7.71,10.78-6.22,15.15-20.93,10.64-32.1-4.57-11.31-18.93-19.63-30.73-20.54Zm25.57,24.72c.82,2.02,1.09,4.18,.95,6.35-.31-.24-.68-.44-1.15-.47-4.5-.38-8.74-1.52-12.68-3.32v-16.64c5.71,3.36,10.57,8.38,12.88,14.09Zm-22.93-17.96c1.94,.37,3.88,.97,5.78,1.75v16.46c-2.4-1.5-4.65-3.29-6.73-5.34,.97-4.28,1.26-8.51,.95-12.88Zm4.29,42.45c-6.95-1.13-14.67-10.09-10.56-17.55,1.37-2.49,2.98-4.74,3.99-7.41,6.98,6.21,15.56,9.82,25.01,10.61,.18,.01,.32-.04,.47-.06-2.38,8.37-10.51,15.77-18.91,14.41Z"/><path class="cls-10" d="M682.74,644.38c-.15-.02-.3-.04-.46-.04-.16-.01-.33-.03-.48-.04-2.06-.09-3.09,1.46-3.09,3.06-.04,.31-.05,.64,0,.99,1.64,10.48-1.55,17.98-6.46,26.88-2.59,4.68-.58,9.8,1.73,14.06,5.78,10.64,18.88,13.47,28.85,7.71,10.78-6.22,15.15-20.93,10.64-32.1-4.58-11.31-18.93-19.63-30.73-20.54Zm25.57,24.72c.82,2.02,1.1,4.18,.95,6.35-.31-.24-.67-.44-1.15-.47-4.5-.38-8.75-1.52-12.68-3.32v-16.64c5.71,3.36,10.58,8.38,12.88,14.09Zm-22.92-17.96c1.94,.37,3.88,.97,5.78,1.75v16.46c-2.4-1.5-4.65-3.29-6.73-5.34,.97-4.28,1.26-8.51,.95-12.88Zm4.29,42.45c-6.95-1.13-14.67-10.09-10.56-17.55,1.37-2.49,2.98-4.74,3.99-7.41,6.98,6.21,15.56,9.82,25.01,10.61,.18,.01,.32-.04,.47-.06-2.38,8.37-10.51,15.77-18.91,14.41Z"/><path class="cls-10" d="M308.23,84.39c-10.03-6.53-21.38-6.55-32.36-2.32-11,4.24-18.39,15.68-25.48,24.54-.41,.36-.7,.84-.89,1.39-.06,.16-.11,.31-.15,.47-3.59,1.55-7.18,3.1-10.77,4.65-2.52,1.09-.34,4.76,2.15,3.68,3.47-1.5,6.94-3,10.41-4.49,.27,.15,.56,.26,.85,.32,10.64,4.15,23.65,7.47,34.54,3.01,11.31-4.64,17.58-16.62,22.84-26.85,.83-1.61,.37-3.39-1.15-4.38Zm-16.23,.87c2.35,.15,4.78,.69,7.28,1.67-3.81,1.65-7.63,3.29-11.45,4.94,1.5-2.14,2.98-4.29,4.17-6.61Zm-4.91,.23c-1.95,3.24-4.46,6.19-6.36,9.45-6.41,2.77-12.83,5.53-19.24,8.3,7.29-8.37,15.78-16.21,25.6-17.75Zm-27.34,23.11c3.68-1.59,7.36-3.17,11.04-4.76,.09,.05,.16,.13,.27,.17,5.03,1.97,10.4,2.9,15.6,4.35-7.19,4.95-17.98,3.1-26.91,.24Zm30.88-3.5c-4.6-1.51-9.41-2.4-14.07-3.75,2.05-.89,4.11-1.77,6.16-2.66,.27-.05,.53-.15,.77-.33,5.87-2.53,11.75-5.07,17.62-7.6-2.88,5.28-6.1,10.24-10.48,14.34Z"/><path class="cls-10" d="M260.96,477.56c2.76,11.65,10.96,19.49,21.82,24.01,10.89,4.52,24.13,1.33,35.37-.19,.54,.02,1.09-.12,1.6-.39,.15-.07,.3-.15,.43-.24,3.67,1.36,7.33,2.71,11,4.07,2.57,.95,3.53-3.21,.98-4.15-3.55-1.31-7.09-2.62-10.64-3.93-.09-.29-.23-.57-.4-.81-4.84-10.35-11.96-21.72-22.93-26-11.39-4.44-24.19-.1-35.06,3.68-1.71,.59-2.61,2.2-2.19,3.96Zm12.35,10.57c-1.6-1.73-2.99-3.79-4.11-6.23,3.9,1.44,7.79,2.88,11.69,4.32-2.56,.51-5.12,1.04-7.58,1.91Zm3.71,3.22c3.65-.99,7.5-1.41,11.12-2.45,6.55,2.42,13.11,4.84,19.66,7.27-11.05,1.03-22.6,.85-30.78-4.82Zm35.74,2.13c-3.76-1.39-7.52-2.78-11.27-4.17-.03-.1-.03-.2-.07-.31-2.28-4.9-5.53-9.28-8.3-13.91,8.62,1.38,15.16,10.16,19.65,18.38Zm-24.77-18.77c2.29,4.27,5.16,8.23,7.6,12.42-2.1-.78-4.19-1.55-6.29-2.32-.23-.15-.49-.25-.78-.29-6-2.22-12-4.44-18-6.65,5.73-1.83,11.48-3.21,17.48-3.15Z"/><g><path class="cls-10" d="M580.38,79.41c-.96-.16-1.98,.15-2.76,1.18-.27,.36-.58,.68-.86,1.02-.53,.37-.88,.8-1.07,1.27-4.72,5.08-10.81,8.39-16.74,12.02-5.2,3.18-12.64,6.14-16.55,10.93-7.02,8.59,6.44,18.36,13.7,20.14,10.95,2.69,23.54-1.24,29.24-11.58,5.82-10.56,4.59-22.73-.7-33.25-.86-1.71-2.56-2.43-4.25-1.74Zm1.11,28.28c-3.52,10.86-15.8,15.02-25.87,11.37-4.05-1.47-11.2-7.5-5.39-11.34,4.06-2.69,8.33-5.1,12.49-7.64,6.3-3.85,12.63-7.45,17.62-12.81,2.57,6.55,3.4,13.47,1.15,20.42Z"/><path class="cls-10" d="M553.37,108.49c-.24,.02-.47,.05-.71,.07-4.11,.41-3.46,6.78,.64,6.37,.24-.02,.47-.05,.71-.07,4.11-.41,3.46-6.78-.64-6.37Z"/></g><g><path class="cls-10" d="M452.5,373.7c-7.07-3.41-14.62-6.37-20.53-11.6-.23-.42-.61-.8-1.14-1.09-.33-.32-.67-.61-.99-.95-.88-.94-1.93-1.15-2.87-.9-1.74-.51-3.37,.37-4.05,2.16-8.26,21.57,4.31,48.78,30.55,42.57,8.5-2.01,20.59-12.36,14.45-21.6-2.89-4.34-10.96-6.44-15.43-8.59Zm6.52,20.1c-8.75,8.5-22.89,4.75-29.21-4.41-4.47-6.48-4.11-15.03-2.01-22.43,4.78,4.19,10.38,6.93,16.2,9.73,3.52,1.69,7.03,3.39,10.55,5.08,5.6,2.7,11.5,5.21,4.47,12.03Z"/><path class="cls-10" d="M457.49,385.39h-.71c-4.13,0-4.13,6.4,0,6.4h.71c4.13,0,4.13-6.4,0-6.4Z"/></g><g><path class="cls-10" d="M98.24,318.51c-7.07-3.41-14.62-6.37-20.53-11.6-.24-.42-.61-.79-1.14-1.09-.33-.32-.67-.61-.99-.95-.88-.94-1.93-1.15-2.87-.9-1.74-.51-3.37,.37-4.05,2.16-8.26,21.57,4.31,48.78,30.55,42.57,8.5-2.01,20.6-12.36,14.45-21.6-2.89-4.34-10.96-6.44-15.43-8.59Zm6.52,20.1c-8.76,8.5-22.89,4.75-29.21-4.41-4.47-6.48-4.11-15.03-2.01-22.43,4.78,4.19,10.38,6.93,16.19,9.73,3.52,1.69,7.03,3.39,10.55,5.08,5.6,2.7,11.5,5.21,4.48,12.03Z"/><path class="cls-10" d="M103.23,330.21h-.71c-4.13,0-4.13,6.4,0,6.4h.71c4.13,0,4.13-6.4,0-6.4Z"/></g><path class="cls-10" d="M372.2,232.81c-4.09-4.68-7.02-8.97-8.43-15.1-2.85-12.41-7.95-20.04-21.25-19.4-1.51-2.6-2.33-5.53-2.43-8.79-.36-4.08-6.76-4.11-6.4,0,.72,8.13,4.68,14.39,4.07,22.7-.61,8.25-.4,14.59,3.76,21.86,5.35,9.34,21.96,18.76,32.35,13.82,3.61-1.72,3.77-6.19,2.71-9.33-.67-2-3.08-4.27-4.38-5.76Zm-18.52-23.4c-2.7,2.43-6.01,3.72-9.61,3.83,.19-2.83,.41-5.65,.63-8.48,4.31,.3,7.08,2.02,8.99,4.65Zm10.94,32.96c-12.76-2.96-20.61-12.31-20.74-24.83,4.34-.01,8.5-1.56,11.85-4.29,1.05,2.63,1.77,5.7,2.51,8.94,.79,3.42,2.62,6.39,4.55,9.27-.12-.18,10.89,13.01,1.84,10.91Z"/><path class="cls-10" d="M601.44,276.32c-.66,7.43-1.81,7.25-3.06,8.76-12.61-.35-18.21,7.14-20.62,19.43-1.2,6.12-4.4,10.5-8.43,15.1-1.3,1.49-3.71,3.75-4.38,5.76-1.05,3.14-.9,7.61,2.71,9.33,11.37,5.41,25.67-5.16,32.35-13.82,4.85-6.29,4.31-14.46,3.76-21.86-.61-8.3,3.35-14.57,4.07-22.7,.36-4.11-6.04-4.08-6.4,0Zm-4.92,15.26c.09,2.51,.69,5.34,.85,7.44,.02,.35,.03,.67,.04,1.01-3.58-.11-6.88-1.4-9.56-3.81,1.79-2.56,4.43-4.29,8.66-4.64Zm-19.62,37.59c-9.01,3.03,1.73-10.76,1.33-10.26,1.7-2.11,3.34-4.63,4.18-7.24,1.3-4.03,2.11-8.13,3.43-11.57,3.29,2.66,7.36,4.18,11.61,4.23-.54,12.66-7.07,20.31-20.56,24.84Z"/><path class="cls-10" d="M106.08,486.59c-.66,7.43-1.81,7.25-3.06,8.76-12.6-.35-18.21,7.14-20.62,19.43-1.2,6.12-4.4,10.5-8.43,15.1-1.3,1.48-3.71,3.75-4.38,5.76-1.05,3.14-.9,7.61,2.71,9.33,11.37,5.41,25.68-5.16,32.35-13.82,4.85-6.29,4.31-14.46,3.76-21.86-.61-8.3,3.35-14.57,4.07-22.7,.36-4.11-6.04-4.08-6.4,0Zm-4.92,15.25c.09,2.51,.69,5.34,.85,7.44,.02,.35,.03,.67,.05,1.01-3.58-.11-6.88-1.4-9.56-3.81,1.79-2.56,4.43-4.29,8.67-4.64Zm-19.62,37.6c-9.01,3.03,1.73-10.76,1.34-10.26,1.7-2.11,3.34-4.64,4.18-7.24,1.3-4.03,2.11-8.13,3.43-11.57,3.29,2.66,7.36,4.17,11.61,4.23-.54,12.66-7.07,20.31-20.56,24.84Z"/><path class="cls-10" d="M672.4,385.41c4.89-5.12,7.53-12.02,6.99-19.06-.12-1.58-.93-2.49-2.35-3.09-6.25-2.62-12.94-1.1-17.6,3.26-2.5-7.11-7.69-13.17-16.14-9.47-.95,.42-1.65,1.75-1.58,2.76,.46,7.41,1.85,14.69,4.76,21.55,2,4.72,5.12,14.59,11.4,14.53,4.74-.04,11.5-7.33,14.52-10.48Zm-15.03,3.94c.19-.12-5.52-11.71-5.85-12.59-1.78-4.68-2.72-9.62-3.18-14.59,4.04,.02,5.44,7.07,6.08,10.12,.42,2,2.14,2.59,3.67,2.18,1.33,.55,2.98,.34,3.97-1.21,2.56-4.03,6.7-5.46,10.95-4.54-.45,9.45-8.06,15.62-15.64,20.63Z"/><path class="cls-10" d="M177.25,99.06c-6.25-2.62-12.94-1.1-17.6,3.26-2.5-7.11-7.69-13.17-16.14-9.47-.95,.42-1.65,1.75-1.58,2.76,.46,7.41,1.85,14.69,4.76,21.55,2,4.72,5.12,14.59,11.4,14.53,4.74-.04,11.5-7.33,14.52-10.48,4.89-5.12,7.53-12.02,6.99-19.06-.12-1.58-.93-2.49-2.35-3.09Zm-19.67,26.09c.19-.12-5.52-11.71-5.85-12.59-1.78-4.68-2.72-9.62-3.18-14.59,4.04,.02,5.44,7.07,6.08,10.12,.42,2,2.14,2.59,3.68,2.18,1.33,.55,2.98,.34,3.97-1.21,2.56-4.03,6.7-5.46,10.95-4.54-.45,9.46-8.06,15.62-15.64,20.63Z"/><g><path class="cls-10" d="M221.56,404.14c-3.49-23.15-19.27-44.61-40.9-49.71-.86-.71-2.02-.88-3.04-.6-5.57-.89-11.5-.7-17.67,.79-.5-2.56-1-5.12-1.51-7.68-.53-2.69-.65-6.02-1.88-8.49-2.51-5.05-9.47-1.72-13.51-.77-1.27,.3-2.5,1.73-2.35,3.09,.54,5.11,1.09,10.22,1.64,15.33-29.73,9.02-50.13,42.91-44.12,73.65,2.91,14.85,10.48,26.89,22.64,35.9,14.81,10.97,34.13,9.17,50.88,4.72,14.16-3.76,29.94-10.22,39.03-22.29,9.38-12.45,13.13-28.51,10.8-43.94Zm-66.26-43.93c.63,1.12,1.85,1.86,3.47,1.37,6.21-1.9,12.1-2.27,17.58-1.46,.2,.59,.4,1.18,.6,1.77-2.86,.88-5.73,1.76-8.59,2.64-2.6,.8-3.23,4.44-.76,5.85,1.47,4.74-.11,5.34-4.74,1.79-1.87-.88-3.68-1.88-5.43-3-1.51-.9-3.5-.34-4.38,1.15-2.51,4.24-5.25,9.01-9.92,11.07,.41-4.08,1.79-7.77,4.16-11.07,2.03-3.36-2.34-5.97-5.03-3.88-4.49,3.49-9.12,5.36-14.33,5.96,.16-.26,.33-.53,.49-.79,1.2-.59,1.66-1.57,1.62-2.56,4.69-3.2,9.84-5.67,15.34-7.18,.9-.25,1.49-.76,1.85-1.38,1.05-.4,1.81-1.34,1.65-2.84-.52-4.84-1.03-9.68-1.55-14.52,1.28-.39,2.62-.78,3.85-.93,.68,1.8,.83,5.25,1.07,6.47,.64,3.25,1.27,6.5,1.91,9.74,.17,.86,.59,1.44,1.12,1.82Zm51.81,82.15c-8.05,12.41-23.64,17.84-37.08,21.84-14.59,4.34-29.73,5.12-43.36-2.41-13.2-7.29-20.74-21.91-22.63-36.38-2.24-17.13,4.29-35.02,16.03-47.73,.58,.78,1.49,1.28,2.55,1.32,5.39,.18,10.17-.66,14.68-2.49-.86,3.02-1.11,6.17-.48,9.87,.21,1.26,1.8,2.52,3.09,2.35,8.12-1.06,12.86-6.05,16.98-12.45,5.44,3.14,14.32,7.56,18.82,3.26,3.95-3.78,3-7.58,.25-10.66,1.97-.6,3.94-1.21,5.91-1.81,1.59-.49,2.81-2.25,2.24-3.94-.13-.37-.25-.75-.38-1.12,17.76,6.56,29.85,26.18,31.86,46.12,1.22,12.09-1.92,24.1-8.49,34.22Z"/><path class="cls-10" d="M116.93,392.5c-5.17,7.42-7.74,15.97-7.59,25.01,.04,2.75,4.31,2.75,4.27,0-.14-8.36,2.23-16,7.01-22.85,1.58-2.26-2.12-4.39-3.68-2.15Z"/><path class="cls-10" d="M112.36,424.88c-2.75,0-2.75,4.27,0,4.27s2.75-4.27,0-4.27Z"/></g><path class="cls-10" d="M373.42,376.88c-15.85-16.76-10.86-44.76-22.11-64.33-.09-.22-.21-.44-.37-.66-.15-.25-.31-.45-.49-.63-5.89-7.81-14.25-12.76-23.57-14.38-.27-4.63-.07-9.23,.74-13.82,.72-4.03-5.45-5.76-6.17-1.7-.88,4.98-1.22,9.94-.99,14.94-1,0-2.01,0-3.02,.07-15.45,.97-23.05,13.5-25.79,27.36-3.93,19.87-3.51,42.83-.4,62.76,2.83,18.11,12.2,35.5,27.1,46.45,21.78,16.02,76.44,26.42,79.48-13.88,1.51-20-11.96-29.02-24.4-42.18Zm14.11,52.63c-1.39,.23-2.86-.08-4.04-1.17-1.74-1.61-2.41-4.13-2.92-6.34-1.1-4.78,.36-10.18,.89-14.95,.54-4.84,.15-9.73-.9-14.47,10.07,10.24,14.94,24.57,6.97,36.93Zm-9.93-39.76c1.42,5.01,2.04,10.14,1.86,15.47-.22,6.41-2.07,12.46-.6,18.85,.69,2.97,2.88,7.11,6.25,7.45,.32,.03,.63,.04,.95,.05-.54,.69-1.08,1.38-1.7,2.05-2.07,2.24-4.55,3.9-7.26,5.13-1.25-.48-2.45-1.24-3.48-2.16-3.04-2.71-3.12-7.62-3.12-11.36,0-6.09,.71-11.98-.01-18.08-1.38-11.7-9.89-19.12-15.59-28.8-3.49-5.92-5.68-12.51-6.14-19.37-.46-6.82,2.41-12.82,4.65-19.05,.12-.33,.21-.66,.32-.99,1.37,6.77,2.4,13.65,4.05,20.37,3.16,12.9,10.33,21.72,19.83,30.43Zm-32.19-74.63c3.5,5.84,5.6,12.1,7.15,18.54-.13,1.29-.32,2.59-.65,3.9-1.69,6.8-5.03,12.54-5.32,19.71-.52,12.89,7.27,24.26,14.76,33.96,4.97,6.44,7.07,13.3,7.44,21.38,.3,6.67-1.13,13.27,.29,19.88,.65,3.02,2.72,5.71,5.32,7.32-.9,.3-1.82,.55-2.76,.77-.47-.83-1.81-.51-1.95,.4-2.05,.35-4.15,.54-6.3,.58-.4-.31-.8-.66-1.16-1.12-1.22-1-2.29-2.16-3.36-3.3-2.45-2.63-4.32-5.75-6-8.9-3-5.64-4.7-11.94-6.02-18.15-2.91-13.75-2.88-27.91-6.66-41.51-1.66-5.98-4.57-11.32-7.28-16.85-4.27-8.73-2.24-16.72,.28-25.59,1.97-6.96,2.9-15.2-1.06-21.23,5.39,2.31,10.2,5.96,13.28,10.23Zm-10.69,120.27c-.37-.16-.71-.34-1.07-.5-3.24-10.49-5.5-21.2-6.75-32.14-1.43-12.59,.11-25.11-.84-37.66-.35-4.59-1.99-8.79-3.89-12.93-2.63-5.72-4.75-11.44-6.17-17.58-1.18-5.13-4.11-24.83,1.15-32.04,1.84-.24,3.71-.28,5.6-.1,.62,.25,1.3,.34,1.93,.26,1.13,.19,2.26,.42,3.37,.74,6.45,5.44,5.05,14.83,3.08,22.12-1.85,6.88-3.91,13.28-2.57,20.45,1.4,7.48,6.62,14.17,9.03,21.36,2.94,8.77,3.82,18.17,4.87,27.3,1.56,13.47,3.65,27.04,10.93,38.76,1.61,2.59,3.84,5.64,6.43,8.06-9.08-.46-18.35-3.15-25.11-6.1Zm-11.24-6.38c-4.72-6.26-7.01-15.06-8.75-22.04-2.87-11.5-3.74-23.43-5.15-35.17-1.32-10.96-3.89-21.58-5.94-32.4-2.21-11.65-2.03-24.62,6.07-34.07,.13-.15,.19-.3,.23-.46,1.54-.85,3.16-1.48,4.85-1.9-1.88,3.95-2.37,9.25-2.56,12.75-.7,13.05,2.6,25.77,8.09,37.5,6.54,13.99,2.89,30.56,4.07,45.58,.93,11.81,3.25,23.48,6.65,34.81-2.71-1.39-5.23-2.93-7.56-4.61Zm-27.6-75.94c.36-13.35-.98-33.01,8.66-43.82-3.7,6.87-4.63,14.78-4.06,22.75,.99,14,5.51,27.73,7.19,41.7,1.59,13.19,2.75,26.43,6.45,39.25,1.17,4.04,2.63,8.35,4.66,12.28-19.42-17.43-23.62-45.67-22.9-72.16Z"/><g><path class="cls-10" d="M453.57,519.76c-1.04-16.85-5.56-34.07-23.91-38.23-2.03-.46-4.08-.67-6.12-.71,.21-4.94-.13-9.83-1-14.74-.72-4.06-6.89-2.33-6.17,1.7,.8,4.51,1.01,9.02,.76,13.56-9.3,1.69-17.96,7.23-23.58,14.64-.18,.19-.35,.39-.5,.64-.17,.23-.29,.47-.39,.7-5.1,8.79-7.34,17.98-8.45,28.08-.75,6.79-.68,13.32-2.69,19.94-2.19,7.22-7.19,13.93-11.76,19.79-13.95,17.86-35.59,31.5-43.67,53.37-6.66,18.02,9.35,34.6,25.08,39.63,21.99,7.03,45.11-6.58,62.34-18.71,40.37-28.41,42.86-74.35,40.07-119.66Zm-17.99-29.25c6.6,3.59,9.81,11.16,11.35,19.81-4.7-1.93-7.46-5.26-8.22-10.03-.41-1.66-3.14-2.25-3.9-.51-1.53,3.5-3.19,6.78-5.1,10.08-6.28,10.82-11.21-.82-9.43-8.41,.39-1.64-1.52-3.61-3.13-2.41-4.79,3.58-15.51,12.38-22.28,9.01,.93-2.78,2.1-5.53,3.71-8.21,8.17-11.3,24.5-16.15,37.01-9.33Zm12.61,53.46c.33,19.12-1.61,38.45-9.18,56.18-8.04,18.86-24.12,31.41-41.09,41.89-17.12,10.57-40.69,17.4-57.83,3.11-21.36-17.81,1.28-40.85,14.69-54.51,11.87-12.08,24.01-24.07,31.31-39.58,5.83-12.38,4.43-25.92,7.54-38.8,6.87,2.88,15.41-2.14,21.84-6.73-.2,5.67,1.33,11.91,6.31,14.83,6.19,3.62,11.72-6.95,14.77-13.87,2.1,3.83,5.35,6.46,9.96,8.24,.4,.16,.75,.15,1.07,.09,1.19,10.45,.48,21.71,.61,29.14Z"/><path class="cls-10" d="M395.3,531.45c.62,9.48-1.45,18.38-6.26,26.59-1.4,2.38,2.29,4.52,3.68,2.15,5.16-8.8,7.51-18.56,6.84-28.74-.18-2.73-4.45-2.75-4.27,0Z"/><path class="cls-10" d="M381.02,569.86c0,.26,.04,.2-.3,.37-2.45,1.26-.29,4.94,2.15,3.68,1.53-.79,2.41-2.35,2.41-4.05,0-2.75-4.26-2.75-4.27,0Z"/></g><g><path class="cls-10" d="M547.61,528.05c.05-1.99-.13-3.95-.48-5.93-.48-2.7-4.59-1.55-4.12,1.14,.31,1.75,.4,3.51,.31,5.27-3.65,.85-7.13,2.83-9.51,5.62-.03,.02-.05,.06-.08,.09-.06,.07-.12,.12-.18,.19-.03,.04-.05,.08-.08,.12-.08,.11-.18,.18-.25,.31-5.46,10.38-3.64,22.19-12.94,30.76-4.51,4.16-8.92,10.24-6.72,16.87,4.83,14.51,24.1,13.13,34.32,4.8,14.49-11.8,15.15-33.03,11.19-50.09-1.47-6.31-6.24-9.03-11.47-9.14Zm2.47,39.84c-2.17-3.91,4.16-7.98,6.1-10.46,.11-.15,.2-.3,.31-.45-.09,6.82-1.28,13.25-4.38,18.75,.08-2.63-.59-5.24-2.03-7.84Zm-22.34-3.75c5.01-5.6,5.14-14.01,7.05-21.36,.08,4.74,1.09,9.85,.39,14.23-1.18,7.32-5.4,11.36-11.94,14.21-1.65,.72-3.19,1.54-4.48,2.57,2.19-3.75,6.49-6.86,8.98-9.64Zm-10.18,15.65c.62-6.35,8.76-6.53,12.75-9.83,3.13-2.59,4.98-5.77,6.25-9.59,1.25-3.75,1.36-7.92,1.17-11.83-.2-4.37-1.58-8.9,.2-12.54,2.69-2.55,6.45-4.29,9.91-3.86,.44,5.45,2.23,10.89-2.59,14.68-2.92,2.29-4.2,5.24-5.02,8.79-1.43,6.18-.28,12.15-4.63,17.45-1.17,1.42-13.69,14.01-15.25,11.26-.33-.59-.94-.62-1.4-.37-.66-1.16-1.14-2.53-1.39-4.16Zm4.28,7.27c1.64-.27,3.4-1.5,4.68-2.52,4.59-3.66,11.71-8.94,13.63-14.77,2.38-7.2-.02-17.41,7.46-21.91,5.03-3.03,2.96-10.1,2.43-15.12,.57,.25,1.12,.59,1.64,1,1.8,5.45,1.4,10.95-1.32,16.17-2.1,4.02-5.93,6.67-6.18,11.55-.14,2.61,.09,5.19,.23,7.79,.26,4.98-2.13,7.74-6.1,10.33-3.63,2.38-5.98,5.61-7.49,9.62-3.28,.15-6.49-.44-8.97-2.14Zm20.85-1.42c-2.34,1.52-5.84,2.81-9.49,3.34,1.62-3.78,4.07-6.17,7.57-8.47,1.43-.94,3.19-2.1,4.04-3.61,2.49-4.4,1.5-9.07,1.42-13.91-.11-6.27,6-10.85,7.93-16.64,.88-2.64,1.05-5.46,.72-8.21,.03,.07,.07,.12,.09,.19,1.68,4.1,1.34,9.89,1.46,14.39-.97,2.01-2.19,3.84-3.77,5.59-1.8,2-3.89,3.31-5.11,5.77-.53,1.06-.38,2.67,.12,3.71,2.07,4.28,3.16,7.94,1.3,12.37-1.73,2.01-3.79,3.86-6.29,5.48Z"/><path class="cls-10" d="M634.65,550.86c-.96-5.04-2.04-9.42-4.42-13.95-.07-.13-.17-.2-.25-.31-.03-.04-.05-.09-.08-.12-.06-.07-.13-.14-.19-.21-.02-.02-.04-.05-.06-.07-2.26-2.63-5.79-4.72-9.52-5.68-.08-1.74,.01-3.48,.32-5.21,.48-2.69-3.63-3.84-4.11-1.13-.34,1.93-.51,3.84-.48,5.78-4.36,0-8.41,1.85-10.36,6.59-6.37,15.51-4.35,38.64,7.65,50.82,7.67,7.79,31.09,14.12,35.91-.34,2.23-6.69,.82-11.9-3.59-17.18-5.13-6.15-9.25-10.76-10.81-18.99Zm9.38,35.02c-.35-.02-.7,.11-.92,.5-1.61,2.85-14.01-9.95-15.25-11.26-4.45-4.7-3.62-11.54-4.63-17.45-.6-3.51-2.23-6.6-5.03-8.79-4.61-3.62-3.17-8.76-2.65-13.98,3.23-.72,6.88,.23,9.91,3.08,1.64,3.25,.82,7.26,.38,11.2-.5,4.46-.11,8.94,1.06,13.26,.9,3.34,2.76,6.28,5.19,8.71,3.98,3.99,13.27,4.04,13.83,10.84-.21,1.4-.82,2.7-1.88,3.89Zm-8.65-20.11c1.64,2.73,4.77,4.94,7.06,7.1,.71,.89,1.3,1.75,1.8,2.59-.75-.55-1.58-1.05-2.47-1.51-3.28-1.7-6.46-2.58-9.16-5.28-2.52-2.53-3.62-6.21-4.34-9.6-1-4.71,.26-10.15,.32-15.1,2.39,7.26,2.71,15.02,6.79,21.8Zm-23.99,12.35c-2.99-5.7-4.22-12.58-4.42-19.06,.05,.07,.09,.14,.13,.22,1.93,2.87,8.38,6.33,6.26,10.68-1.37,2.83-2.08,5.47-1.98,8.17Zm3.5,5.12s0-.07-.03-.1c-2.06-4.12-1.87-8.11,.35-12.1,.81-1.47,1.26-2.96,.8-4.63-.57-2.08-2.57-3.6-4.1-4.95-2.14-1.89-3.73-4.18-4.93-6.69,.1-3.05,.33-6.1,.54-9.13,.12-1.71,.5-3.22,1.04-4.55-.11,1.89,0,3.8,.34,5.79,1.04,6.13,6.36,9.73,8.04,15.43,1.44,4.88-1.68,10.7,.96,15.37,3.19,5.64,9.5,7.21,12.32,13.33-1.44-.2-2.86-.53-4.26-.99-4.7-1.22-8.31-3.64-11.08-6.78Zm19.75,8c-.68,.02-1.35,.01-2.01-.02-1.27-3.36-3.12-6.5-6.12-8.62-3.79-2.67-7.09-4.61-7.46-9.76-.19-2.56,.27-5.21,.32-7.78,.09-4.84-2.68-8.06-5.41-11.74-3.49-4.71-4.03-10.8-2.55-16.29,.59-.51,1.22-.96,1.89-1.3-.63,4.26-2.15,11.17,1.52,13.54,7.77,5.01,6.15,12.9,7.93,20.88,.83,3.7,10.94,16.39,17.53,18.66-1.56,.89-3.44,1.7-5.64,2.44Z"/><path class="cls-10" d="M667.79,570.54c-1.85-19.6-5.88-39.03-9.87-58.29-3.75-18.07-6.62-36.89-11.86-54.57-3.54-11.94-10.16-22-20.2-29.34-4.23-3.09-9.66-4.89-14.79-5.59-5.57-.76-11.73,.29-12.41-5.9,10.6-6.96,8.49-15.9,8.4-28.4-.01-1.69-1.09-2.67-2.36-2.98-1.36-4.82-7.2-7.9-11.77-8.35-13.06-1.27-27.72,.67-40.77,2-8.29,.98-36.98,4.48-40.18,16.8-.82,.48-1.38,1.36-1.29,2.65,.75,10.21-1.55,19.7,8.29,25.88,.68,.42,1.41,.75,2.16,1.04-1.54,11.22-18.01,14.45-24.25,22.73-7.22,9.58-8.42,21.17-8.75,32.82-.65,22.5,3.1,45.4,6.26,67.6,2.98,20.98,3.59,48.89,15.91,66.77,13.8,20.04,46.83,18.43,67.79,16.89,28.11-2.07,58.01-10.82,81.65-26.44,11.59-7.66,9.15-23.41,8.02-35.33Zm-172.65-70.48c2.89-13.38,17.22-17.58,28.83-20.78,12.83-3.54,25.91-6.12,39.06-8.16,14.28-2.22,28.72-3.27,43.16-3.69,11.58-.33,34.41-2.98,39.01,11.39-1.2,13.52-30.41,12.61-39.56,13.61-12.32,1.35-24.63,2.7-36.94,4.05-12.31,1.35-24.63,2.7-36.94,4.05-3.79,.41-31.49,5.74-36.57,.58-.02-.35-.03-.7-.06-1.05Zm38-111.02c6.06-2.11,12.7-2.76,19.03-3.51,12.64-1.3,25.51-1.92,38.21-2.25,9.94-.26,10.08,8.69,3.02,13.03-5.54,3.41-14.24,3.96-20.53,5.16-14.24,2.7-30.45,4.94-44.91,2.61-4.31-.35-6.88-3.02-7.72-8.03,3.14-3.47,8.66-5.53,12.91-7.01Zm-15.89,21.4c-.13-1.16-.16-2.33-.16-3.5,4.16,2.52,9.83,3.68,13.43,3.97,13.32,1.08,26.82-.58,39.99-2.58,7.89-1.2,22.77-2.83,30.23-9.42,0,.57,0,1.15,.01,1.72,.04,5.84-2.6,8.96-6.17,11.3-.6,.17-1.16,.49-1.59,.98-1.49,.85-3.09,1.62-4.68,2.42-8.77,4.45-19.03,5.85-28.69,6.5-9.4,.64-18.92-.22-28.28-.97-6.28-.51-13.1-1.37-14.09-10.41Zm-7.47,35.2c6.54-4.37,16.83-9.19,17.65-18.23,.02-.18,.03-.36,.05-.54,1.32,.15,2.63,.26,3.86,.38,9.4,.94,18.85,1.29,28.28,.97,11.5-.38,22.75-3,33.02-8.03,1.01,4.01,3.75,6.68,8.76,7.93,4.26,1.06,8.74,.79,13.04,1.8,10.26,2.43,17.4,11.78,21.98,20.57,2.92,5.58,5.03,11.85,6.71,18.4-4.28-3.28-9.97-4.86-15.7-5.38-18.84-1.68-38.33,.05-57.05,2.32-18.26,2.2-36.46,5.94-54.09,11.2-8.33,2.49-16.73,6.6-21.6,13.53-.08-2.49-.15-4.97-.16-7.46-.07-14.94,2.05-28.64,15.25-37.47Zm151.88,146.71c-1.87,11.86-23.97,18.31-33.37,22.02-28.53,11.25-64,16.89-94.09,9.05-28.68-7.48-28.6-43.35-32.29-67.5-2.44-16-4.83-32.19-6.21-48.41,6.01,1.65,15.21-.42,19.64-.91,20.52-2.25,41.04-4.5,61.57-6.75,18.7-2.05,37.6-3.46,56.19-6.35,5.48-.85,10.55-3.53,13.55-7.55,1.4,8.06,2.58,16.08,4.13,23.42,4.28,20.22,8.45,40.57,10.6,61.15,.75,7.15,1.39,14.68,.27,21.82Z"/><path class="cls-10" d="M577.13,511.04c-1.83-.74-4.19-.65-5.9,.38-2.31,1.4-2.01,4.09-.78,6.12,.09,.15,.2,.26,.32,.34,2.45,2.88,6.82,1.28,8.41-1.78,1.11-2.14,.08-4.21-2.06-5.07Zm-4.83,5.43c-.41-.67-.75-1.37-.71-2.16,.02-.35,.32-.76,.61-.97,1-.7,2.44-.76,3.61-.48,.54,.13,1.04,.36,1.38,.68,.29,.27,.39,.59,.33,.94-.37,2.06-3.73,4.15-5.23,1.99Z"/><path class="cls-10" d="M587.46,523.57c-1.81,1.56-1.8,4.8,.17,6.21,1.54,1.11,3.75,.77,5.24-.25,1.87-1.29,2.26-3.53,1.09-5.44-1.61-2.25-4.47-2.25-6.49-.52Zm1.7,4.64c-1.05-.33-1.06-1.84-.62-2.62,.68-1.24,2.69-1.66,3.57-.43,1.21,1.96-1.04,3.64-2.95,3.05Z"/><path class="cls-10" d="M548.28,599.02c-1.52,1.46-2.28,3.78-1.96,5.84,.41,2.7,3.21,3.25,5.48,2.89,.18-.03,.32-.09,.44-.18,1.56-.55,2.59-1.96,2.89-3.58,.32-1.78-.37-3.41-1.44-4.79-1.45-1.87-3.81-1.73-5.41-.18Zm2.95,6.68c-.67,.11-1.48,.13-2.07-.16-.46-.23-.64-.58-.76-1.12-.24-1.07,.33-2.52,1.05-3.52,.29-.4,.8-.79,1.12-.91,.4-.14,.69-.13,1.09,.19,1.66,1.34,2.19,4.95-.43,5.52Z"/><path class="cls-10" d="M572.12,591.5c-1.51,1.46-2.27,3.78-1.96,5.84,.41,2.7,3.21,3.25,5.48,2.89,.18-.03,.32-.09,.44-.18,1.56-.54,2.6-1.96,2.89-3.58,.33-1.78-.37-3.41-1.44-4.8-1.45-1.87-3.81-1.73-5.41-.18Zm2.95,6.67c-.67,.11-1.48,.14-2.07-.16-.46-.23-.64-.58-.76-1.12-.24-1.07,.33-2.52,1.05-3.52,.29-.4,.8-.79,1.12-.91,.4-.14,.69-.13,1.09,.18,1.66,1.34,2.19,4.95-.43,5.52Z"/><path class="cls-10" d="M571.22,581.07c-.51-2.25-2.58-3.22-4.72-2.87-2.6,.62-3.74,3.48-2.76,5.87,.89,2.18,3.6,3.35,5.72,2.15,1.74-.99,2.18-3.35,1.76-5.15Zm-2.66,3.17c-1.88,1.91-4.93-3.17-1.49-3.98,2.24-.37,2.81,2.64,1.49,3.98Z"/><path class="cls-10" d="M631.65,516.65c.19,.06,.35,.05,.51,.02,1.84,.16,3.65-.66,4.75-2.16,1.12-1.53,1.14-3.27,.65-5.04-.63-2.28-2.61-3.54-4.86-2.56-3.8,1.66-6.22,8.21-1.05,9.74Zm1.31-7.44c.94-.67,1.69-.83,2.25,.13,.46,.77,.67,1.96,.5,2.82-.29,1.46-2.01,2.73-3.49,2.44-2.8-.83-1.01-4.15,.74-5.39Z"/><path class="cls-10" d="M521.67,531.41c.37-2.02,.14-4.75-2.36-5.14-1.97-.31-4,.78-5.34,2.16-1.48,1.52-1.94,3.62-.57,5.36,2.52,3.2,7.41,1.19,8.27-2.38Zm-5.79-1.87c.83-.75,2-1.26,3.03-1.19,.25,.02,.49,.18,.67,.5,.26,.49,.15,1.4,.04,1.99-.54,2.24-3.72,3.48-4.9,1.09-.33-.68,.43-1.74,1.16-2.39Z"/></g><g><path class="cls-10" d="M289.3,206.76c-1.46-1.9-3.3-3.22-5.19-4.65-5.49-4.16-7-8.6-7.27-14.91-.27-6.58-3.91-12.26-8.43-16.75-8.98-8.91-22.73-7.25-32.05-.28-9.5-10.5-26.93-28-38.6-11.81-3.19,4.43-5.08,9.31-7.41,14.22-3.58,7.55-11.22,8.82-18.26,10.85-8.35,2.41-12.29,9.28-14.48,17.16-2.87,10.31-4.34,21.96-5.56,32.58-1.06,9.15-.04,16.81,5.84,23.37,.02,.62,.3,1.22,1.03,1.61,.37,.2,.75,.38,1.12,.56,0,0,.02,.02,.02,.02,15.61,14.04,43.07,4.18,56,21.9,.27,.38,.59,.66,.94,.88,3.93,11.84,4.77,24.58,10.14,35.77,4.12,8.58,14.17,11.65,22.37,7.81,8.96-4.2,8.07-17.41,6.15-25.02-1.89-7.47-4.84-13.78-5.3-21.64-.43-7.52,1.81-14.75,5.41-21.22,.13-.1,.26-.2,.39-.33,5.64-5.91,15.56-.58,22.42-2.2,5.79-1.37,9.35-4.56,12.49-9.55,6.91-10.97,5.98-28.26-1.75-38.37Zm-40.82,91.87c2.13,6.15,3.29,11.88,.33,18.13-5.04,4.53-9.46,4.89-13.27,1.12,4.28-.45,8.32-3.04,10.28-7.02,1.21-2.46-2.46-4.62-3.68-2.15-1.88,3.8-5.92,5.59-9.87,4.71-1.78-3-2.4-7.12-3.07-10.44-2.07-10.27-4.4-19.9-8.53-29.57-.8-1.88-2.56-2.02-3.93-1.23-7.33-6.28-16.85-8.4-26.77-9.91-3.95-.6-7.79-1.23-11.54-2.17,2.09-.56,4.21-1.3,6.35-2.19,5.48-2.28,10.22-5.99,15.24-9.07,2.88-1.77,5.46-2.26,7.9-2.12-.3,.7-.26,1.53,.44,2.23,2.34,2.37,4.23,5.11,5.51,8.19,1.04,2.51,5.17,1.41,4.11-1.13-1.25-3.02-2.89-5.76-4.96-8.23,2.98,.96,5.94,2.27,9.22,2.68,2.5,.32,5.23-.76,7.79-2.2-.39,4.76,.21,9.49,1.87,14.09,.93,2.57,5.05,1.46,4.11-1.13-1.89-5.23-2.36-10.56-1.26-16,.58-.41,1.14-.79,1.65-1.13,5.46-3.66,13.49-3.99,17.83,1.31,.62,.75,1.36,1.37,2.14,1.92-1.02-.04-2.08,.36-2.82,1.41-11.13,15.64-11.16,32.37-5.08,49.95Zm34.93-54.8c-4.97,1.75-9.89,3.13-15.31,3.16-7.75,.03-9.51-6.22-14.98-9.14-8.07-4.31-15-.07-21.95,4.59-9.79,6.57-19.09-2.53-29.55,.88-11.4,3.72-20.18,14.58-31.9,13.79-1.2-.55-2.4-1.13-3.57-1.82-12.8-7.42-7.31-24.52-5.36-36.11,1.35-8.08,1.94-16.79,5.78-24.17,4.33-8.33,16.78-5.65,23.07-11.31,5.94-5.35,8-12.61,11.74-19.45,8.69-15.87,26.85,6.39,32.4,12.61,1.18,1.33,3.32,1.15,4.52,0,14.87-14.14,31.87-1.66,32.34,15.94,.28,10.4,9.3,12.16,14.81,19.37,6.34,8.29,5.27,23.86-2.03,31.66Z"/><path class="cls-10" d="M265.55,200.75c-1.92-2.22-4.42-.76-6.77-.08-2.64,.76-1.52,4.88,1.13,4.12,.89-.26,1.79-.52,2.68-.77,2.21,2.74,1.58,6.87-1.8,8.61-1.05,.54-1.31,1.95-.77,2.92,1.08,1.93,3.7,5.87-.07,7.54-2.51,1.11-.34,4.79,2.15,3.68,5.07-2.25,4.39-7.39,2.5-11.58,2.59-2.12,3.95-5.47,3.48-8.91-.3-2.18-1.12-3.86-2.55-5.52Z"/><path class="cls-10" d="M214.06,188.6c-1.54-4.08-4.79-6.03-9.1-5.34-2.13,.34-3.77,2.32-4.77,4.04-1.31,2.24,0,5.22-3.64,4.6-3.24-.55-6.66-1.45-8.68,1.84-2.2,3.58,.18,8.11,3.28,10.1,2.33,1.49,4.46-2.21,2.15-3.68-.73-.47-3.75-4.58-.7-4.61,.92,0,1.92,.29,2.82,.47,1.36,.26,3.03,.61,4.39,.19,1.21-.38,2.36-.96,3.03-2.1,.38-.65,.64-1.42,.72-2.17,.29-2.51,4-8.54,6.39-2.19,.96,2.55,5.08,1.45,4.11-1.13Z"/><path class="cls-10" d="M179.11,234.83c-1.49,.21-2.96-1.2-3.05-2.63-.12-1.89,2.03-2.81,3.57-2.61,2.72,.35,2.69-3.92,0-4.27-4.12-.53-7.61,2.89-7.84,6.88-.25,4.49,4.52,7.29,8.45,6.75,2.71-.38,1.55-4.49-1.13-4.12Z"/><path class="cls-10" d="M235.08,213.28c-3.34-2.22-6.22-1.01-8.49,1.96-1.47,1.92-1.84-.75-3.62-1.79-1.47-.86-3.57,.12-4.92,.78-3.35,1.63-4.51,5.68-3.98,9.05,.43,2.71,4.54,1.56,4.11-1.13-.34-2.15,1.74-5.78,3.88-3.74,1.35,1.29,2.05,2.26,3.97,2.22,1.1-.02,1.99-.77,2.78-1.44,.6-.51,1.21-1.5,1.68-2.09,1.03,.66,2.06,1.33,3.09,1.99,.04,1.04-.04,2.07-.21,3.1-.37,2.69,3.74,3.85,4.11,1.13,.47-3.39,.89-7.84-2.43-10.05Z"/><path class="cls-10" d="M234.51,281.67c2.08,7.18,4.17,14.36,6.25,21.54,.76,2.64,4.88,1.51,4.11-1.13-2.08-7.18-4.17-14.36-6.25-21.54-.77-2.64-4.88-1.52-4.11,1.13Z"/></g><g><path class="cls-10" d="M240.36,528.34c-19.51,20.59-48.57,20.39-74.47,14.8-10.69-2.31-21.44-8.14-32.37-8.27-2.61-.03-6.01,1.75-7.55,3.82-3.84,5.15,.31,15.55-9.52,15.7-8.78,.13-16.92-.16-22.09,8.5-4.74,7.94-4.99,16.13,.37,23.77,1.73,2.46,3.9,4.63,5.66,7.07,3.83,5.29-1.2,10.26-3.84,13.69-2.46,3.19-5.5,7.17-5.46,11.47,.08,10.62,6.39,17.52,16.02,21.17,3.21,1.22,15.19,.06,16.35,3.46,.85,2.5,1.04,5.66,2.84,7.74,7.2,8.34,14.83,6.63,24.67,4.03,24.65-6.49,45.76-23.35,60.37-43.81,9.3-13.02,16.98-21.83,32.72-26.21,10.26-2.85,20.83-4.41,29.85-10.43,19.11-12.77,11.47-42.55-4.01-54.78-11.27-8.9-21.87-.38-29.54,8.28Zm27.46-1.83c5.73,4.52,8.46,12.3,10.24,19.05,4.22,15.98-6.59,25.33-20.14,29.55-8.51,2.65-17.29,4.02-25.63,7.31-8.82,3.48-14.94,9.89-20.55,17.3-7.42,9.81-13.96,19.45-23.16,27.77-10.36,9.37-22.95,16.19-36.12,20.66-5.73,1.95-14.29,5.34-19.65,.89-2.8-2.32-2.69-6.78-4.15-9.84-3.57-7.48-12.97-3.61-19.84-5.32-12.95-3.22-12.31-16.26-5.56-24.74,2.08-2.62,3.46-5.12,4.57-8.23,3.5-9.84-9.8-16.42-10.88-25.08-.84-6.74,4.36-13.03,10.37-15.11,5.01-1.73,11.16,.54,16.5-.84,2.45-.63,4.93-2.87,6.19-5,2.84-4.79-3.92-15.99,9.52-12.91,9.24,2.12,18.09,5.91,27.43,7.93,9.77,2.11,19.78,3.08,29.78,2.93,18.19-.27,35.51-6.66,48.11-19.95,6.33-7.15,13.05-14.2,22.96-6.38Z"/><path class="cls-10" d="M187.66,583.25c2.15-1.65,.05-5.37-2.13-3.7-16.78,12.82-42.89,13.82-63.03,17.79-2.7,.53-1.58,4.65,1.11,4.12,20.64-4.07,46.78-5.02,64.05-18.21Z"/><path class="cls-10" d="M145.36,623.55c-2.5,1.14-.35,4.83,2.13,3.69,25.02-11.46,47.42-27.16,66.75-46.75,1.93-1.96-1.07-4.99-3-3.03-19.09,19.34-41.18,34.78-65.88,46.09Z"/><path class="cls-10" d="M144.71,562.08c-2.67-.65-3.83,3.46-1.16,4.11,14.08,3.41,28.27,4.59,42.72,3.47,2.72-.21,2.77-4.48,.02-4.27-14.07,1.09-27.87,.02-41.59-3.31Z"/><path class="cls-10" d="M261.54,531.11c3.6,5.58,11.01,13,5.36,19.44-4.5,5.14-12.89,7.33-19.23,8.97-2.66,.69-1.55,4.81,1.11,4.12,7.42-1.93,18.08-4.96,22.6-11.8,5.54-8.38-1.59-15.78-6.15-22.86-1.49-2.3-5.19-.19-3.7,2.13Z"/></g><g><path class="cls-10" d="M536.74,208.43c-7-8.01-22.19-7.42-33.48-3.99-.13-.2-.28-.39-.47-.58-9.31-9.3-20.98-13.4-33.78-12.32-3.82-11-14.61-42.12-26.46-30.27-5.84,5.84-.73,14.08,2.43,19.7,.87,1.55,9.98,16.18,8.82,17.05-6.07,4.6-12.98,8.4-19.38,12.53-.29,.19-.52,.41-.72,.64-9.99,1.16-19.49,4.56-25.49,13.12-11.54,16.46-.04,39.04,6.54,55.45,6.4,15.98,14.86,38.7,29.63,48.97,9.87,6.86,23.86,7.81,31.55-1.82,2.2,1.4,4.71,2.26,7.56,2.27,5.79,0,10.34-1.7,13.91-4.54,9.53,5.21,25.17,8.53,31.2-3.18,4.38-8.5,5.12-18.45,6.84-27.76,2.31-12.5,4.63-25.01,6.94-37.52,2.96-16.02,5.95-34.45-5.66-47.75Zm-78.34-5.92c2.95-2.24,2.39-4.7,1.5-7.84-1.93-6.79-7.75-13.99-11.21-20.16,1.02-7.25,2.46-8.18,4.32-2.77,1.23,2.28,2.41,4.59,3.54,6.92,2.77,5.56,5.05,11.33,7.2,17.15,.66,1.79,2.09,2.5,3.94,2.23,10.95-1.6,21,1.63,29.05,8.89-.78,.38-1.53,.77-2.21,1.17-.22,.13-.41,.27-.58,.42-6.28-4.59-14.14-8.02-21.26-6.69-8.27,1.55-13.72,4.95-17.21,9.5-.32-.13-.68-.23-1.08-.26-2.62-.17-5.38-.31-8.19-.38,4.17-2.6,8.32-5.25,12.19-8.19Zm-19.76,110.24c-7.94-11.65-13.88-25.13-19.1-38.15-5.02-12.52-14.26-31.84-7.46-44.7,7.31-13.83,26.41-13.4,40.1-12.56-5,13.25,0,31.96,2.94,46.28,3.25,15.85,6.09,31.88,10.41,47.48,1.07,3.86,2.97,8.1,5.7,11.51-9.35,13.36-26.12-.34-32.61-9.86Zm96.82-54.1c-2.31,12.5-4.62,25.01-6.94,37.52-1.36,7.33-1.64,17.55-6.68,23.48-5.12,6.03-13.67,3.52-19.95,.21,8.78-12.48,8.3-34.51,6.91-47.21-.44-4.06-6.85-4.1-6.4,0,1.46,13.33,3.36,33.88-7,44.63-.66,.28-1.21,.82-1.56,1.48-1.76,1.49-3.81,2.73-6.21,3.67-17.79,6.94-22.71-42.88-24.76-52.88-3.55-17.26-15.32-45.19,1.81-57.85,10.21-7.54,21.21-1.26,29.77,5.46,6.91,5.42,7.29,26.32,8,34.01,.37,4.07,6.78,4.11,6.4,0-.59-6.42-1.46-12.75-2.63-19.09-.95-5.19-1.66-13.4-5.48-17.53-.5-.54-1.05-1.09-1.61-1.64,10.84-5.59,29.33-6.73,36.27,4.41,7.17,11.51,2.3,29.15,.04,41.34Z"/><path class="cls-10" d="M423.5,227.35c-14.35,4.62-5.26,21.82-3.9,31.33,.39,2.71,4.5,1.56,4.11-1.13-.96-6.75-9.64-22.69,.92-26.09,2.61-.84,1.49-4.96-1.14-4.11Z"/><path class="cls-10" d="M430.93,263.96c-2.75,0-2.75,4.27,0,4.27s2.75-4.27,0-4.27Z"/></g><g><path class="cls-10" d="M503.16,18.5c.4-6.31,.16-11.07-4.21-15.85-2.48-2.72-7.47-3.48-10.64-1.63-5.79,3.39-.31,20.5-9.03,20.94-.54,.03-1,.17-1.4,.38-6.21,.57-12.27,1.67-18.39,3.41-7.32,2.09-7.14,7.47-6.98,14.51-10.91,16.04-25.55,28.43-43.1,36.98-20.42,9.95-42.23,7.17-63.42,13.12-1.03,.29-2.01,1.16-2.24,2.24-2.98,13.91,11.29,20.75,22.07,25.26,16.89,7.07,36.04,7.42,53.65,3.31,31.08-7.25,70.44-27.01,78.46-60.62,4.34-3.69,6.4-11.36,6.87-16.7,.73-8.42-2.2-16.84-1.66-25.35Zm-41.96,13.42c7.85-2.61,16.14-3.49,24.37-3.62,2.72-.04,3.64-2.85,2.76-4.73,1.37-1.87,2.27-4.18,2.52-6.81,.11-1.11,.21-2.22,.32-3.34-.33-8.51,1.61-7.88,5.81,1.9,.04,3.42-.41,6.79-.34,10.23,.18,7.85,2.62,15.14,1.11,23.04-.48,5.11-3.45,6.57-8.91,4.39-1.47-2.03-2.7-3.81-4.24-5.8-2.76-3.55-7.26-5.01-11.42-5.95-1.99-.45-4.54-.61-6.56-.84-1.61-.25-3.22-.5-4.82-.75-.36-.16-.65-.33-.95-.5,.63-1.73-.51-3.28-2.01-3.85,.3-1.02,1.08-2.13,2.36-3.37Zm-26.32,77.26c-25.14,10.5-57.96,12.98-80.76-4.85-11.95-9.34,5.89-10.29,11.78-10.75,5.22-.4,10.46-.59,15.64-1.4,10.87-1.7,21.1-4.89,31.11-9.42,18.06-8.17,33.38-21.79,44.61-38.02,4.6,1.57,9.22,1.95,14.22,2.66,9.81,1.4,9.89,12.19,17.55,14.74,.6,.2,1.16,.32,1.72,.42-7.94,24.8-33.1,37.11-55.87,46.62Z"/><path class="cls-10" d="M454.22,59.53c-5.87,7.22-12.84,13.17-20.91,17.8-2.39,1.37-.24,5.05,2.15,3.68,8.37-4.8,15.69-10.98,21.78-18.47,1.72-2.12-1.28-5.15-3.02-3.02Z"/><path class="cls-10" d="M421.57,85.55h-1.07c-2.75,0-2.75,4.27,0,4.27h1.07c2.75,0,2.75-4.27,0-4.27Z"/></g><g><path class="cls-10" d="M503.16,658.5c.4-6.31,.16-11.07-4.21-15.85-2.48-2.72-7.47-3.48-10.64-1.63-5.79,3.39-.31,20.51-9.03,20.94-.54,.03-1,.17-1.4,.38-6.21,.57-12.27,1.67-18.39,3.42-7.32,2.08-7.14,7.46-6.98,14.5-10.91,16.04-25.55,28.43-43.1,36.98-20.42,9.95-42.23,7.17-63.42,13.12-1.03,.29-2.01,1.16-2.24,2.24-2.98,13.91,11.29,20.75,22.07,25.26,16.89,7.07,36.04,7.42,53.65,3.31,31.08-7.25,70.44-27.01,78.46-60.62,4.34-3.69,6.4-11.36,6.87-16.7,.73-8.42-2.2-16.84-1.66-25.35Zm-41.96,13.42c7.85-2.62,16.14-3.49,24.37-3.62,2.72-.04,3.64-2.85,2.76-4.73,1.37-1.87,2.27-4.18,2.52-6.81,.11-1.11,.21-2.23,.32-3.34-.33-8.51,1.61-7.88,5.81,1.9,.04,3.42-.41,6.79-.34,10.23,.18,7.85,2.62,15.14,1.11,23.04-.48,5.11-3.45,6.57-8.91,4.39-1.47-2.03-2.7-3.81-4.24-5.8-2.76-3.55-7.26-5.01-11.42-5.95-1.99-.45-4.54-.61-6.56-.84-1.61-.25-3.22-.5-4.82-.75-.36-.16-.65-.33-.95-.51,.63-1.73-.51-3.28-2.01-3.85,.3-1.02,1.08-2.14,2.36-3.37Zm-26.32,77.26c-25.14,10.5-57.96,12.98-80.76-4.85-11.95-9.34,5.89-10.29,11.78-10.75,5.22-.4,10.46-.59,15.64-1.4,10.87-1.7,21.1-4.89,31.11-9.42,18.06-8.17,33.38-21.79,44.61-38.02,4.6,1.57,9.22,1.94,14.22,2.66,9.81,1.4,9.89,12.19,17.55,14.74,.6,.2,1.16,.32,1.72,.42-7.94,24.8-33.1,37.11-55.87,46.62Z"/><path class="cls-10" d="M454.22,699.53c-5.87,7.22-12.84,13.17-20.91,17.8-2.39,1.37-.24,5.05,2.15,3.69,8.37-4.8,15.69-10.98,21.78-18.47,1.72-2.11-1.28-5.15-3.02-3.02Z"/><path class="cls-10" d="M421.57,725.55h-1.07c-2.75,0-2.75,4.27,0,4.27h1.07c2.75,0,2.75-4.27,0-4.27Z"/></g><g><path class="cls-10" d="M716.7,196.16c-2.38-.75-4.77-1.4-7.16-1.96,10.74-15.51,19.31-32.14,25.81-49.89,3.78-10.33,6.71-21.12,8.28-32.01,.76-5.29,1.75-15.75-2.63-20.13-12.25-12.25-19.21,23.56-20.55,27.96-5.52,17.99-11.85,36-16.76,54.27-.34-21.72-.12-43.65-2.09-65.22-.7-7.66-2.66-14.92-6.35-21.67-3.93-7.18-6.98-8.63-14.37-7.13-1.05,.21-1.98,1.22-2.24,2.23-7.55,30.44,2.88,59.34,10.62,88.56-7.98-15.97-15.41-32.19-22.26-48.69-2.51-6.05-5.04-17.32-11.82-20.38-2.7-1.22-10.09-3.92-12.03,.23-7.51,16.14-.48,31.19,9.37,44.54,11.85,16.07,25.39,30.99,39.53,45.09-17.45-.17-33.43,6.48-43.54,24.08-6.32,10.99-5.56,24.61-.71,35.87,7.44,17.24,35.33,22.08,32.96,43.83-.36,3.29,4.47,4.2,5.96,1.61,8.07-13.93,16.28-26.13,29.81-35.34,10.48-7.14,20.62-13.26,26.75-24.79,10.82-20.38-9.86-35.24-26.57-41.06Zm9.91-74.33c1.24-4.05,2.49-8.1,3.73-12.14,.41-1.35,.83-2.7,1.24-4.05,.15-5.18,2.19-5.61,6.12-1.28,1.03,14.77-5.92,31.7-11.15,45.23-4.96,12.82-11.57,24.97-19.16,36.43,3.28-13.47,7.71-26.67,11.77-39.91,2.48-8.09,4.97-16.19,7.45-24.28Zm-25.87,64.5c-.24,1.05-.48,2.11-.7,3.17-.21-1.15-.43-2.3-.66-3.44,.43,.18,.9,.27,1.37,.27Zm-18.1-71.56c-.46-4.2-2.34-27.77,2.46-28.74,12.31-2.49,12.34,68.98,12.33,91.29-2.92-12.1-6.6-24.01-9.8-36.06-2.31-8.72-4.02-17.53-4.99-26.5Zm-36.51,2.41c.15-2,.31-4,.46-6,6.57-2.74,10.31-.89,11.21,5.55,1.54,3.71,3.02,7.44,4.56,11.15,2.68,6.44,5.48,12.82,8.33,19.18,4,8.94,8.24,17.76,12.63,26.52-3.9-4.23-7.74-8.51-11.49-12.88-10.68-12.45-24.16-26.43-25.7-43.53Zm78.72,131.44c-.12-.09-.2-.2-.35-.28-16.5-8.12-34.02-11.66-52.38-10.42-2.73,.19-2.75,4.45,0,4.27,17.09-1.16,33.42,1.9,48.85,9.21-1.61,1.11-3.16,2.12-4.55,3.03-5.14,3.35-9.64,6.97-13.69,10.88-1.46-.9-2.92-1.81-4.37-2.71-2.34-1.46-4.49,2.24-2.15,3.68,1.15,.71,2.3,1.43,3.45,2.14-4.99,5.28-9.32,11.06-13.41,17.42-2.1-6.84-7.07-12.52-12.89-17.44-1.58-1.33-3.13-2.62-4.64-3.88,6.77-3.37,14.53-5.72,21.72-2.19,2.46,1.21,4.62-2.47,2.15-3.68-9.17-4.5-18.79-1.62-27.38,2.89-3.48-3.04-6.59-6.08-9.05-9.53,1.1-3.2,3.66-5.62,6.92-6.56,2.64-.76,1.51-4.88-1.13-4.12-3.55,1.03-6.5,3.3-8.4,6.34-2.1-4.22-3.29-9.11-3.14-15.25,.35-.08,.69-.22,1-.52,4.79-4.6,10.82-7.05,17.45-7.12,2.75-.03,2.75-4.3,0-4.27-6.53,.07-12.6,2.17-17.7,6.03,3.01-13.01,14.58-23.35,27-27.15,11.97-3.66,25.28-.71,36.85,2.92,9.8,3.42,19.98,8.38,23.87,18.72,.81,2.15,1.11,4.23,1.03,6.25-9.97-4.78-20.48-7.72-31.58-8.87-2.74-.28-2.71,3.99,0,4.27,10.85,1.12,21.09,4.15,30.79,8.98-2.14,6.64-8.21,12.39-14.26,16.95Z"/><path class="cls-10" d="M693.85,218.91c-3.31-.83-6.69-1.18-10.1-1.02-2.74,.13-2.75,4.4,0,4.27,3.05-.15,6,.13,8.96,.87,2.67,.67,3.8-3.45,1.14-4.12Z"/></g><g><path class="cls-10" d="M76.7,196.16c-2.38-.75-4.77-1.4-7.16-1.96,10.74-15.51,19.31-32.14,25.81-49.89,3.78-10.33,6.71-21.12,8.28-32.01,.76-5.29,1.75-15.75-2.63-20.13-12.25-12.25-19.2,23.56-20.55,27.96-5.52,17.99-11.85,36-16.76,54.27-.34-21.72-.12-43.65-2.09-65.22-.7-7.66-2.66-14.92-6.35-21.67-3.93-7.18-6.98-8.63-14.37-7.13-1.05,.21-1.98,1.22-2.24,2.23-7.55,30.44,2.87,59.34,10.62,88.56-7.98-15.97-15.41-32.19-22.26-48.69-2.51-6.05-5.04-17.32-11.82-20.38-2.7-1.22-10.09-3.92-12.02,.23-7.5,16.14-.48,31.19,9.37,44.54,11.85,16.07,25.38,30.99,39.53,45.09-17.45-.17-33.43,6.48-43.54,24.08-6.32,10.99-5.56,24.61-.71,35.87,7.43,17.24,35.32,22.08,32.96,43.83-.36,3.29,4.47,4.2,5.96,1.61,8.07-13.93,16.28-26.13,29.81-35.34,10.48-7.14,20.62-13.26,26.75-24.79,10.82-20.38-9.86-35.24-26.57-41.06Zm9.92-74.33c1.24-4.05,2.48-8.1,3.73-12.14,.41-1.35,.83-2.7,1.24-4.05,.15-5.18,2.19-5.61,6.12-1.28,1.03,14.77-5.92,31.7-11.15,45.23-4.96,12.82-11.57,24.97-19.16,36.43,3.28-13.47,7.71-26.67,11.77-39.91,2.48-8.09,4.97-16.19,7.45-24.28Zm-25.87,64.5c-.24,1.05-.48,2.11-.7,3.17-.21-1.15-.43-2.3-.66-3.44,.43,.18,.9,.27,1.37,.27Zm-18.1-71.56c-.46-4.2-2.33-27.77,2.46-28.74,12.31-2.49,12.34,68.98,12.33,91.29-2.92-12.1-6.6-24.01-9.8-36.06-2.32-8.72-4.02-17.53-4.99-26.5Zm-36.51,2.41c.15-2,.31-4,.47-6,6.57-2.74,10.31-.89,11.21,5.55,1.54,3.71,3.02,7.44,4.56,11.15,2.67,6.44,5.48,12.82,8.33,19.18,4,8.94,8.24,17.76,12.63,26.52-3.9-4.23-7.74-8.51-11.49-12.88-10.68-12.45-24.16-26.43-25.7-43.53ZM84.85,248.63c-.12-.09-.2-.2-.35-.28-16.5-8.12-34.02-11.66-52.38-10.42-2.73,.19-2.75,4.45,0,4.27,17.09-1.16,33.42,1.9,48.85,9.21-1.61,1.11-3.16,2.12-4.55,3.03-5.14,3.35-9.64,6.97-13.69,10.88-1.46-.9-2.91-1.81-4.37-2.71-2.34-1.46-4.49,2.24-2.15,3.68,1.15,.71,2.3,1.43,3.45,2.14-4.99,5.28-9.33,11.06-13.41,17.42-2.1-6.84-7.07-12.52-12.89-17.44-1.58-1.33-3.13-2.62-4.64-3.88,6.77-3.37,14.53-5.72,21.72-2.19,2.46,1.21,4.62-2.47,2.15-3.68-9.17-4.5-18.79-1.62-27.38,2.89-3.48-3.04-6.59-6.08-9.05-9.53,1.1-3.2,3.66-5.62,6.92-6.56,2.64-.76,1.51-4.88-1.13-4.12-3.55,1.03-6.5,3.3-8.4,6.34-2.1-4.22-3.29-9.11-3.14-15.25,.34-.08,.69-.22,1-.52,4.79-4.6,10.82-7.05,17.45-7.12,2.75-.03,2.75-4.3,0-4.27-6.53,.07-12.6,2.17-17.7,6.03,3.01-13.01,14.58-23.35,27-27.15,11.97-3.66,25.28-.71,36.85,2.92,9.81,3.42,19.98,8.38,23.87,18.72,.81,2.15,1.11,4.23,1.03,6.25-9.97-4.78-20.48-7.72-31.58-8.87-2.74-.28-2.71,3.99,0,4.27,10.85,1.12,21.09,4.15,30.8,8.98-2.14,6.64-8.21,12.39-14.26,16.95Z"/><path class="cls-10" d="M53.85,218.91c-3.31-.83-6.69-1.18-10.1-1.02-2.74,.13-2.75,4.4,0,4.27,3.05-.15,6,.13,8.97,.87,2.67,.67,3.8-3.45,1.13-4.12Z"/></g></g></g></svg>