<?xml version="1.0" encoding="UTF-8"?><svg id="food_donation_box" xmlns="http://www.w3.org/2000/svg" viewBox="0 0 238.85 164.63"><defs><style>.cls-1{fill:#faa175;}.cls-2{fill:#00b1b0;}.cls-3{fill:#ebe4d3;}.cls-4{fill:#f1d4ad;}.cls-5{fill:#f4f7fe;}.cls-6{fill:#eb854d;}.cls-7{fill:#ea7847;}.cls-8{fill:#ebc698;}.cls-9{fill:#f1ffde;}.cls-10{fill:#ffd663;}.cls-11{fill:#ffa46a;}.cls-12{fill:#fbffff;}.cls-13{fill:#ff8370;}.cls-14{fill:#fec84d;}.cls-15{fill:#afb2cf;}.cls-16{fill:#d23a59;}.cls-17{fill:#ddb07f;}.cls-18{fill:#cc6a33;}.cls-19{fill:#d1955a;}.cls-20{fill:#dabb95;}.cls-21{fill:#af9171;}.cls-22{fill:#9b825e;}.cls-23{fill:#94c900;}.cls-24{fill:#86aa04;}.cls-25{fill:#48372f;}.cls-26{opacity:.58;}</style></defs><polygon class="cls-18" points="74.07 87.48 113.54 67.37 112.24 144.5 74.07 163.33 74.07 87.48"/><polygon class="cls-8" points="121.35 50.38 112.26 41.28 112.26 41.28 110.55 33.32 88.1 35.31 88.1 41.28 79.29 53.22 77.3 101.25 98.33 105.8 124.48 103.24 121.35 50.38"/><polygon class="cls-18" points="74.07 87.48 53.81 122.7 91.88 120.66 100.89 87.48 74.07 87.48"/><g><polygon class="cls-19" points="79.29 53.27 88.1 41.34 98.33 53.27 79.29 53.27"/><polygon class="cls-17" points="112.26 41.34 121.35 50.43 98.33 53.27 88.1 41.34 112.26 41.34"/><polygon class="cls-17" points="79.29 53.27 77.3 101.31 98.33 105.85 98.33 53.27 79.29 53.27"/></g><g><path class="cls-13" d="M118.46,104.39V51.24l9.6-13.05,11.53-.91,9.35,13.96v53.14s-10.97,6.5-30.47,0Z"/><polygon class="cls-16" points="128.06 38.19 128.06 30.86 139.67 30.86 139.59 37.28 128.06 38.19"/><path class="cls-16" d="M118.46,74.99s9.15,1.98,17.22,2.29c8.08,.3,13.25-2.29,13.25-2.29v15.85s-13.87,7.47-30.47,0v-15.85Z"/></g><g><path class="cls-1" d="M167.11,93.14l13.76-65.09s6.04-23.82,13.08-26.51c7.05-2.68,9.73-2.01,10.74,3.02,1.01,5.03-16.1,96.29-16.1,96.29l-21.47-7.72Z"/><polygon class="cls-7" points="194.62 22.02 183.03 20.73 180.86 28.06 194.62 26.71 194.62 22.02"/><polygon class="cls-7" points="178.44 39.52 192.61 43.83 192.61 48.86 176.82 47.18 178.44 39.52"/><polygon class="cls-7" points="174.44 58.44 189.25 62.61 189.25 67.98 172.94 65.52 174.44 58.44"/><polygon class="cls-7" points="170.74 75.95 184.71 81.07 185.92 86.77 169.26 82.97 170.74 75.95"/></g><g><path class="cls-2" d="M204.29,38.49s-4.34,3.22-5.79,6.33c-1.45,3.11-13.67,46.62-13.67,46.62,0,0,15.98,8.86,25.23,6.78,0,0,11.95-38.77,11.95-50.03l-3.47-6.06-14.25-3.64Z"/><polygon class="cls-25" points="204.05 35.39 203.08 38.49 218.54 42.13 219.19 39.26 204.05 35.39"/><path class="cls-14" d="M197.33,48.25l24.04,6.12s-1.53,9.2-5.22,24.58c-3.14,13.07-5.3,21.36-5.3,21.36,0,0-12.71,2.25-27.17-8.1l13.66-43.96Z"/><polygon class="cls-5" points="197.65 58.98 216.64 63.85 212.77 81.2 192.36 76.1 197.65 58.98"/><path class="cls-24" d="M205.52,68.87s.5-1.72,3.45-1.31,4.24,3.4,2.78,5.26c-1.46,1.86-3.4,1.85-5.79,.89-2.39-.96-.44-4.84-.44-4.84Z"/><path class="cls-23" d="M200.21,69s.49-1.67,3.35-1.28,4.12,3.3,2.7,5.11-3.3,1.8-5.63,.86-.42-4.7-.42-4.7Z"/></g><g><path class="cls-2" d="M144.09,56.14l1.54,38.02s9.16,3.44,24.34,3.15l6.73-2.86V56.14h-32.61Z"/><path class="cls-15" d="M145.6,58.32s19.51,5.2,29.25-.24c9.74-5.44-21.76-5.73-25.49-4.3s-7.48,1.67-3.76,4.53Z"/><path class="cls-10" d="M144.43,70.26s17.47,7.67,32.57-.22l-.3,13.56s-12.5,7.34-31.5,0l-.78-13.34Z"/></g><polygon class="cls-11" points="74.07 87.48 74.07 163.33 182.25 163.33 185.38 163.07 191.32 87.48 74.07 87.48"/><polygon class="cls-6" points="191.32 87.48 218.11 70.26 215.28 160.57 182.25 163.33 191.32 87.48"/><polygon class="cls-11" points="191.32 87.48 210.27 111.42 238.85 90.97 218.09 70.26 191.32 87.48"/><g><polygon class="cls-21" points="2.57 129.06 0 147.42 86.66 147.42 81.51 128.28 2.57 129.06"/><path class="cls-22" d="M2.44,129.98l2.37-16.08s2.06-6.34,7.13-6.66c5.07-.32,59.77-1.43,63.41,2.38,3.65,3.8,4.76,6.01,4.91,8.79,.16,2.78,1.7,11.57,1.7,11.57H2.44Z"/><polygon class="cls-20" points="6.72 150.68 10.04 163.83 23.84 163.83 28.59 150.68 6.72 150.68"/><polygon class="cls-20" points="32.08 150.68 33.19 163.83 51.74 163.83 55.86 150.68 32.08 150.68"/><polygon class="cls-20" points="59.03 150.68 60.14 163.83 77.26 164.63 80.91 150.68 59.03 150.68"/><path class="cls-3" d="M6.72,134.66s.95-11.1,9.83-10.94c8.88,.16,9.35,10.94,9.35,10.94,0,0-8.4,3.8-19.18,0Z"/><path class="cls-3" d="M59.66,134.66s.79-10.31,7.77-10.94c6.98-.63,10.15,10.31,10.15,10.31,0,0-6.82,5.32-17.91,.63Z"/><path class="cls-3" d="M33.82,134.5s.79-10.31,7.77-10.94c6.98-.63,10.15,10.31,10.15,10.31,0,0-6.82,5.32-17.91,.63Z"/><path class="cls-12" d="M6.48,142.14s1.68-12.91,9.51-13.08c7.83-.17,10.15,13.55,10.15,13.55,0,0-10.86,3.72-19.66-.48Z"/><path class="cls-12" d="M33.5,143.23s1.68-12.91,9.51-13.08c7.83-.17,10.15,13.55,10.15,13.55,0,0-10.86,3.72-19.66-.48Z"/><path class="cls-12" d="M58.79,144.24s1.68-12.91,9.51-13.08,10.15,13.55,10.15,13.55c0,0-10.86,3.72-19.66-.48Z"/><polygon class="cls-4" points="0 147.42 86.66 147.42 86.29 152.57 .03 152.57 0 147.42"/></g><g class="cls-26"><polygon class="cls-16" points="93.5 114.26 166.19 101.86 170.16 124.94 100.05 141.42 93.5 114.26"/><g><path class="cls-9" d="M101,121.31l-.93,.1,3.1,13.94,.73-.07c.05,0,.49-.05,1.15-.19,1.26-.28,3.33-.95,4.99-2.46,1.42-1.29,2.2-4.38,.97-7.12-.84-1.87-3.26-4.91-10.02-4.2Zm7.92,10.08c-1.48,1.35-3.41,1.91-4.45,2.11l-2.36-10.6c3.73-.19,6.34,.96,7.38,3.3,.88,1.96,.4,4.31-.57,5.19Z"/><path class="cls-9" d="M116.38,120.96l-.07,.02c-.11,.03-2.63,.85-3.65,3.11-.62,1.37-.55,2.94,.21,4.66,.93,2.1,2.68,3.23,4.93,3.17,.46-.01,.92-.07,1.37-.17,2.25-.5,4.29-1.99,4.78-3.27,.53-1.36,.55-4.12-1.06-5.99-.98-1.14-2.9-2.32-6.51-1.52Zm6.01,6.91c-.31,.8-2.44,2.31-4.64,2.38-1.57,.04-2.7-.7-3.36-2.18-.56-1.26-.63-2.36-.22-3.28,.66-1.46,2.36-2.11,2.61-2.2,2.23-.49,3.85-.16,4.84,.99,1.09,1.27,1.15,3.31,.77,4.3Z"/><path class="cls-9" d="M131.34,118.54c-1.24-.28-2.5,.31-3.74,1.74l-.68-2.43-1.61,.45,3.13,11.22,1.61-.45-1.95-6.99,.13-.16c.73-1.03,1.8-1.96,2.75-1.75,1.7,.38,3.21,4.83,3.74,7.87l1.65-.29c-.15-.86-1.56-8.43-5.02-9.21Z"/><path class="cls-9" d="M146.99,124.08c-2.01-1.39-3.13-7.55-3.39-9.81l-1.66,.19c.03,.22,.1,.85,.25,1.71-1.12-.04-2.77,.1-3.93,1.11-.97,.85-1.41,2.09-1.31,3.7,.19,2.9,1.87,3.94,2.86,4.29,1,.37,2.1,.37,3.12,.15,.8-.18,1.53-.51,2.16-.91,.29,.38,.61,.7,.96,.94,.68,.47,1.45,.63,2.22,.46,.03,0,.05-.01,.08-.02l-.41-1.62c-.28,.06-.63,.03-.95-.19Zm-6.61-.37c-1.07-.39-1.66-1.34-1.76-2.83-.07-1.07,.17-1.83,.73-2.33,.83-.72,2.26-.76,3.16-.68,.36,1.67,.9,3.65,1.7,5.23-1.02,.67-2.61,1.06-3.83,.62Z"/><path class="cls-9" d="M154.07,122.28c-1.54,.02-2.82-3.15-3.73-7.17l3.24-.72-.36-1.63-3.22,.72c-.5-2.62-.86-5.44-1.03-7.91l-1.67,.12c.09,1.27,.38,4.65,1.05,8.16l-3.23,.72,.36,1.63,3.21-.71c1,4.39,2.66,8.5,5.38,8.47,.31,0,.68-.04,1.07-.13,1.34-.3,2.94-1.18,3.11-3.21l-1.67-.14c-.14,1.76-2.43,1.81-2.53,1.81Z"/><path class="cls-9" d="M165.12,115.25v-.57c-.01-.29-.09-2.86-1.4-3.85-.5-.38-1.12-.5-1.78-.32-1.3,.34-5.18,1.36-4.35,5.53h-.01l.62,2.99c.47,1.21,1.52,2.09,2.88,2.41,.74,.17,1.51,.16,2.23-.03,.69-.18,1.34-.52,1.85-1,.65-.6,1.02-1.15,1.03-1.17l-1.21-.81s-.3,.44-.81,.91c-.7,.65-1.76,.91-2.76,.68-.88-.2-1.56-.76-1.81-1.39l-.37-1.82,5.9-1.53Zm-2.82-3.34c.28-.07,.43,0,.53,.07,.43,.33,.69,1.31,.78,2.15l-4.67,1.21c-.2-1.75,.83-2.77,3.36-3.43Z"/></g></g></svg>