<?xml version="1.0" encoding="UTF-8"?><svg id="Layer_1" xmlns="http://www.w3.org/2000/svg" viewBox="0 0 1080 925.02"><defs><style>.cls-1{letter-spacing:0em;}.cls-2{letter-spacing:0em;}.cls-3{letter-spacing:0em;}.cls-4{letter-spacing:0em;}.cls-5{letter-spacing:0em;}.cls-6{fill:#ffc622;}.cls-7{fill:#ff7a69;}.cls-8{letter-spacing:0em;}.cls-9{letter-spacing:0em;}.cls-10{letter-spacing:0em;}.cls-11{letter-spacing:-.04em;}.cls-12{letter-spacing:-.02em;}.cls-13{fill:#ddd;stroke:#fff;stroke-miterlimit:10;stroke-width:7px;}.cls-14{letter-spacing:0em;}.cls-15{letter-spacing:0em;}.cls-16{font-family:Marvin, Marvin;font-size:190.77px;}.cls-16,.cls-17{fill:#fff;}.cls-18{letter-spacing:0em;}.cls-19{letter-spacing:0em;}.cls-17{font-family:AcuminVariableConcept, 'Acumin Variable Concept';font-size:65.96px;font-variation-settings:'wght' 194, 'wdth' 100, 'slnt' 0;}.cls-20{letter-spacing:0em;}</style></defs><g><path class="cls-13" d="M32.26,177.03c0-78.29,63.45-141.76,141.75-141.76s141.74,63.47,141.74,141.76-63.45,141.74-141.74,141.74S32.26,255.3,32.26,177.03Z"/><path class="cls-6" d="M174,177.03l-10.25-127.85c-30.62,1.47-37.9,4.33-63.47,23.73l73.72,104.12Z"/></g><g><path class="cls-13" d="M812.76,881.64c-111.16-8.64-194.28-105.73-185.65-216.91,8.64-111.16,105.76-194.25,216.92-185.62,111.15,8.63,194.26,105.73,185.62,216.89-8.64,111.17-105.75,194.27-216.89,185.63Z"/><path class="cls-7" d="M997.36,613.62c30.22,76.48,5.3,163.73-60.75,212.7-66.05,48.98-156.78,47.5-221.18-3.63l112.97-142.31,168.97-66.76Z"/></g><text class="cls-16" transform="translate(37.91 676.42)"><tspan x="0" y="0">40%</tspan></text><text class="cls-17" transform="translate(50.82 777.23)"><tspan class="cls-5" x="0" y="0">o</tspan><tspan x="35.42" y="0">f f</tspan><tspan class="cls-10" x="85.67" y="0">oo</tspan><tspan x="156.25" y="0">d </tspan><tspan class="cls-18" x="209.67" y="0">i</tspan><tspan class="cls-3" x="223.45" y="0">s </tspan><tspan class="cls-12" x="269.88" y="0">w</tspan><tspan class="cls-19" x="317.77" y="0">a</tspan><tspan class="cls-1" x="350.94" y="0">s</tspan><tspan class="cls-9" x="380.03" y="0">t</tspan><tspan class="cls-20" x="398.69" y="0">e</tspan><tspan class="cls-3" x="432.13" y="0">d </tspan><tspan x="0" y="79.15">in </tspan><tspan class="cls-1" x="67.4" y="79.15">t</tspan><tspan class="cls-8" x="86.27" y="79.15">he </tspan><tspan class="cls-11" x="172.67" y="79.15">U</tspan><tspan x="216.86" y="79.15">.S. </tspan></text><text class="cls-16" transform="translate(621.79 202.46)"><tspan x="0" y="0">10%</tspan></text><text class="cls-17" transform="translate(356.62 316.05)"><tspan class="cls-5" x="0" y="0">o</tspan><tspan x="35.42" y="0">f Ame</tspan><tspan class="cls-14" x="199.18" y="0">r</tspan><tspan x="220.02" y="0">i</tspan><tspan class="cls-4" x="234.14" y="0">c</tspan><tspan class="cls-8" x="266.32" y="0">an ho</tspan><tspan class="cls-9" x="424.15" y="0">u</tspan><tspan x="459.24" y="0">s</tspan><tspan class="cls-4" x="488.53" y="0">e</tspan><tspan class="cls-8" x="521.9" y="0">hol</tspan><tspan class="cls-18" x="607.05" y="0">d</tspan><tspan x="642.99" y="0">s</tspan><tspan x="186.39" y="79.15">a</tspan><tspan class="cls-14" x="219.89" y="79.15">r</tspan><tspan x="240.73" y="79.15">e f</tspan><tspan class="cls-10" x="307.54" y="79.15">oo</tspan><tspan class="cls-15" x="378.12" y="79.15">d</tspan><tspan x="413.93" y="79.15">-i</tspan><tspan class="cls-2" x="452.58" y="79.15">n</tspan><tspan x="488.52" y="79.15">s</tspan><tspan class="cls-20" x="517.81" y="79.15">e</tspan><tspan class="cls-19" x="551.25" y="79.15">c</tspan><tspan x="582.84" y="79.15">u</tspan><tspan class="cls-14" x="618.32" y="79.15">r</tspan><tspan x="639.16" y="79.15">e</tspan></text></svg>