<?xml version="1.0" encoding="UTF-8"?><svg id="Layer_1" xmlns="http://www.w3.org/2000/svg" viewBox="0 0 873.31 211.51"><defs><style>.cls-1{fill:#00b3b0;}.cls-2{fill:#fff;}.cls-3{fill:#ff7a69;}.cls-4{fill:#e42256;}.cls-5{fill:#e32356;}</style></defs><g><path class="cls-2" d="M746.82,138.36c12.98,10.55,27.11,15.83,39.1,16.74,14.65,1.11,25.58-4.38,26.38-14.84,1.82-23.97-78.14-11.47-74.66-57.5,2.68-35.38,37.61-41.92,69.95-39.47,12.74,.97,24.99,3.42,34.75,5.88l-3.78,34.72c-6.25-3.34-20.64-7.88-33.38-8.84-11.41-.86-21.33,1.25-21.96,9.62-1.47,19.4,82.03-2.01,77.19,61.9-2.74,36.14-38.19,49.53-73.19,46.88-25.68-1.95-50.9-12.46-63.04-29.07l22.63-26.03Z"/><path class="cls-2" d="M615.56,194.21l-10.87-139.64,89.85-10.68,2.48,33-52.46,6.1,1.91,19.46,41.01-3.05,3.05,30.33-40.25,3.43,2.86,20.6,51.51-5.15,2.67,46.93-91.76-1.33Z"/><path class="cls-2" d="M486.53,161.36l5.05-148.39,48.41,.63-11.5,110.24,50.33,.61-2.22,38.68-90.07-1.78Z"/><path class="cls-2" d="M331.01,59.65c7.83-1.78,15.69-3.38,23.61-4.6,56.75-8.73,102.06,7.28,108.82,51.21,6.75,43.93-41.35,82.59-96.4,91.06-5.28,.81-10.62,1.25-15.98,1.49l-20.04-139.16Zm49.56,91.39c28.25-4.54,39.9-22.93,37.47-38.76-2.26-14.71-16.72-27.15-40.85-23.44-.94,.15-2.04,.51-3.18,.68l6.56,61.53Z"/><path class="cls-2" d="M240.65,167.24c-38.15,0-70.2-30.14-70.2-70.58S197.35,20.54,243.13,20.54s72.68,36.05,72.68,74.78c0,44.26-35.48,71.92-75.16,71.92Zm30.9-70.2c0-14.88-9.73-30.71-28.04-30.71s-30.52,13.54-30.52,33.38c0,16.02,9.73,31.67,30.71,31.67,16.98,0,27.85-14.12,27.85-34.34Z"/><path class="cls-2" d="M81.2,206.63c-38.15,0-70.2-30.14-70.2-70.58S37.9,59.93,83.68,59.93s72.68,36.05,72.68,74.78c0,44.26-35.48,71.92-75.16,71.92Zm30.9-70.2c0-14.88-9.73-30.71-28.04-30.71s-30.52,13.54-30.52,33.38c0,16.02,9.73,31.67,30.71,31.67,16.98,0,27.85-14.12,27.85-34.34Z"/></g><path class="cls-3" d="M742.82,128.92c12.98,10.55,27.11,15.83,39.1,16.74,14.65,1.11,25.58-4.38,26.38-14.84,1.82-23.97-78.14-11.47-74.66-57.5,2.68-35.38,37.61-41.92,69.95-39.47,12.74,.97,24.99,3.42,34.75,5.88l-3.78,34.72c-6.25-3.34-20.64-7.88-33.38-8.84-11.41-.86-21.33,1.25-21.96,9.62-1.47,19.4,82.03-2.01,77.19,61.9-2.74,36.14-38.19,49.53-73.19,46.87-25.68-1.95-50.9-12.46-63.04-29.07l22.63-26.03Z"/><path class="cls-4" d="M74.97,196.07c-38.15,0-70.2-30.14-70.2-70.58S31.67,49.37,77.45,49.37s72.68,36.05,72.68,74.78c0,44.26-35.48,71.92-75.16,71.92Zm30.9-70.2c0-14.88-9.73-30.71-28.04-30.71s-30.52,13.54-30.52,33.38c0,16.02,9.73,31.67,30.71,31.67,16.98,0,27.85-14.12,27.85-34.34Z"/><path class="cls-1" d="M236.06,158.3c-38.15,0-70.2-30.14-70.2-70.58S192.76,11.6,238.54,11.6s72.68,36.05,72.68,74.78c0,44.26-35.48,71.92-75.16,71.92Zm30.9-70.2c0-14.88-9.73-30.71-28.04-30.71s-30.52,13.54-30.52,33.38c0,16.02,9.73,31.67,30.71,31.67,16.98,0,27.85-14.12,27.85-34.34Z"/><path class="cls-3" d="M327.01,51.22c7.83-1.78,15.69-3.38,23.61-4.6,56.75-8.73,102.06,7.28,108.82,51.21,6.75,43.93-41.35,82.59-96.4,91.06-5.28,.81-10.62,1.25-15.98,1.49l-20.04-139.17Zm49.56,91.39c28.25-4.54,39.9-22.93,37.47-38.76-2.26-14.71-16.72-27.15-40.85-23.44-.94,.15-2.04,.51-3.18,.68l6.56,61.53Z"/><path class="cls-5" d="M481.53,154.93l5.05-148.39,48.41,.63-11.5,110.24,50.33,.61-2.22,38.68-90.07-1.78Z"/><path class="cls-1" d="M612.56,186.77l-10.87-139.64,89.85-10.68,2.48,33-52.46,6.1,1.91,19.46,41.01-3.05,3.05,30.33-40.25,3.43,2.86,20.6,51.51-5.15,2.67,46.93-91.76-1.33Z"/></svg>